<mxfile host="app.diagrams.net" agent="Mozilla/5.0 (Macintosh; Intel Mac OS X 10_15_7) AppleWebKit/605.1.15 (KHTML, like Gecko) Version/17.3 Safari/605.1.15" version="24.7.7">
  <diagram name="Page-1" id="yEGll9FPXvhf9yuERp_A">
    <mxGraphModel dx="3465" dy="666" grid="1" gridSize="10" guides="1" tooltips="1" connect="1" arrows="1" fold="1" page="1" pageScale="1" pageWidth="827" pageHeight="1169" math="0" shadow="0">
      <root>
        <mxCell id="0" />
        <mxCell id="1" parent="0" />
        <mxCell id="HmzSfwOKwj8Bq_koUTHl-33" value="Items" style="shape=table;startSize=30;container=1;collapsible=1;childLayout=tableLayout;fixedRows=1;rowLines=0;fontStyle=1;align=center;resizeLast=1;fillColor=#d5e8d4;strokeColor=#009900;labelBackgroundColor=none;" parent="1" vertex="1">
          <mxGeometry x="-1580" y="360" width="180" height="330" as="geometry" />
        </mxCell>
        <mxCell id="HmzSfwOKwj8Bq_koUTHl-34" value="" style="shape=tableRow;horizontal=0;startSize=0;swimlaneHead=0;swimlaneBody=0;fillColor=none;collapsible=0;dropTarget=0;points=[[0,0.5],[1,0.5]];portConstraint=eastwest;strokeColor=#009900;top=0;left=0;right=0;bottom=1;labelBackgroundColor=none;fontColor=#393C56;" parent="HmzSfwOKwj8Bq_koUTHl-33" vertex="1">
          <mxGeometry y="30" width="180" height="30" as="geometry" />
        </mxCell>
        <mxCell id="HmzSfwOKwj8Bq_koUTHl-35" value="PK" style="shape=partialRectangle;overflow=hidden;connectable=0;fillColor=none;strokeColor=#009900;top=0;left=0;bottom=0;right=0;fontStyle=1;labelBackgroundColor=none;fontColor=#393C56;" parent="HmzSfwOKwj8Bq_koUTHl-34" vertex="1">
          <mxGeometry width="30" height="30" as="geometry">
            <mxRectangle width="30" height="30" as="alternateBounds" />
          </mxGeometry>
        </mxCell>
        <mxCell id="HmzSfwOKwj8Bq_koUTHl-36" value="Code int " style="shape=partialRectangle;overflow=hidden;connectable=0;fillColor=none;align=left;strokeColor=#009900;top=0;left=0;bottom=0;right=0;spacingLeft=6;fontStyle=5;labelBackgroundColor=none;fontColor=#393C56;" parent="HmzSfwOKwj8Bq_koUTHl-34" vertex="1">
          <mxGeometry x="30" width="150" height="30" as="geometry">
            <mxRectangle width="150" height="30" as="alternateBounds" />
          </mxGeometry>
        </mxCell>
        <mxCell id="HmzSfwOKwj8Bq_koUTHl-37" value="" style="shape=tableRow;horizontal=0;startSize=0;swimlaneHead=0;swimlaneBody=0;fillColor=none;collapsible=0;dropTarget=0;points=[[0,0.5],[1,0.5]];portConstraint=eastwest;strokeColor=#009900;top=0;left=0;right=0;bottom=0;labelBackgroundColor=none;fontColor=#393C56;" parent="HmzSfwOKwj8Bq_koUTHl-33" vertex="1">
          <mxGeometry y="60" width="180" height="30" as="geometry" />
        </mxCell>
        <mxCell id="HmzSfwOKwj8Bq_koUTHl-38" value="" style="shape=partialRectangle;overflow=hidden;connectable=0;fillColor=none;strokeColor=#009900;top=0;left=0;bottom=0;right=0;labelBackgroundColor=none;fontColor=#393C56;" parent="HmzSfwOKwj8Bq_koUTHl-37" vertex="1">
          <mxGeometry width="30" height="30" as="geometry">
            <mxRectangle width="30" height="30" as="alternateBounds" />
          </mxGeometry>
        </mxCell>
        <mxCell id="HmzSfwOKwj8Bq_koUTHl-39" value="Desc" style="shape=partialRectangle;overflow=hidden;connectable=0;fillColor=none;align=left;strokeColor=#009900;top=0;left=0;bottom=0;right=0;spacingLeft=6;labelBackgroundColor=none;fontColor=#393C56;" parent="HmzSfwOKwj8Bq_koUTHl-37" vertex="1">
          <mxGeometry x="30" width="150" height="30" as="geometry">
            <mxRectangle width="150" height="30" as="alternateBounds" />
          </mxGeometry>
        </mxCell>
        <mxCell id="HmzSfwOKwj8Bq_koUTHl-40" value="" style="shape=tableRow;horizontal=0;startSize=0;swimlaneHead=0;swimlaneBody=0;fillColor=none;collapsible=0;dropTarget=0;points=[[0,0.5],[1,0.5]];portConstraint=eastwest;strokeColor=#009900;top=0;left=0;right=0;bottom=0;labelBackgroundColor=none;fontColor=#393C56;" parent="HmzSfwOKwj8Bq_koUTHl-33" vertex="1">
          <mxGeometry y="90" width="180" height="30" as="geometry" />
        </mxCell>
        <mxCell id="HmzSfwOKwj8Bq_koUTHl-41" value="" style="shape=partialRectangle;overflow=hidden;connectable=0;fillColor=none;strokeColor=#009900;top=0;left=0;bottom=0;right=0;labelBackgroundColor=none;fontColor=#393C56;" parent="HmzSfwOKwj8Bq_koUTHl-40" vertex="1">
          <mxGeometry width="30" height="30" as="geometry">
            <mxRectangle width="30" height="30" as="alternateBounds" />
          </mxGeometry>
        </mxCell>
        <mxCell id="HmzSfwOKwj8Bq_koUTHl-42" value="UnitPrice " style="shape=partialRectangle;overflow=hidden;connectable=0;fillColor=none;align=left;strokeColor=#009900;top=0;left=0;bottom=0;right=0;spacingLeft=6;labelBackgroundColor=none;fontColor=#393C56;" parent="HmzSfwOKwj8Bq_koUTHl-40" vertex="1">
          <mxGeometry x="30" width="150" height="30" as="geometry">
            <mxRectangle width="150" height="30" as="alternateBounds" />
          </mxGeometry>
        </mxCell>
        <mxCell id="HmzSfwOKwj8Bq_koUTHl-43" value="" style="shape=tableRow;horizontal=0;startSize=0;swimlaneHead=0;swimlaneBody=0;fillColor=none;collapsible=0;dropTarget=0;points=[[0,0.5],[1,0.5]];portConstraint=eastwest;strokeColor=#009900;top=0;left=0;right=0;bottom=0;labelBackgroundColor=none;fontColor=#393C56;" parent="HmzSfwOKwj8Bq_koUTHl-33" vertex="1">
          <mxGeometry y="120" width="180" height="30" as="geometry" />
        </mxCell>
        <mxCell id="HmzSfwOKwj8Bq_koUTHl-44" value="" style="shape=partialRectangle;overflow=hidden;connectable=0;fillColor=none;strokeColor=#009900;top=0;left=0;bottom=0;right=0;labelBackgroundColor=none;fontColor=#393C56;" parent="HmzSfwOKwj8Bq_koUTHl-43" vertex="1">
          <mxGeometry width="30" height="30" as="geometry">
            <mxRectangle width="30" height="30" as="alternateBounds" />
          </mxGeometry>
        </mxCell>
        <mxCell id="HmzSfwOKwj8Bq_koUTHl-45" value="Available " style="shape=partialRectangle;overflow=hidden;connectable=0;fillColor=none;align=left;strokeColor=#009900;top=0;left=0;bottom=0;right=0;spacingLeft=6;labelBackgroundColor=none;fontColor=#393C56;" parent="HmzSfwOKwj8Bq_koUTHl-43" vertex="1">
          <mxGeometry x="30" width="150" height="30" as="geometry">
            <mxRectangle width="150" height="30" as="alternateBounds" />
          </mxGeometry>
        </mxCell>
        <mxCell id="HmzSfwOKwj8Bq_koUTHl-46" value="" style="shape=tableRow;horizontal=0;startSize=0;swimlaneHead=0;swimlaneBody=0;fillColor=none;collapsible=0;dropTarget=0;points=[[0,0.5],[1,0.5]];portConstraint=eastwest;strokeColor=#009900;top=0;left=0;right=0;bottom=0;labelBackgroundColor=none;fontColor=#393C56;" parent="HmzSfwOKwj8Bq_koUTHl-33" vertex="1">
          <mxGeometry y="150" width="180" height="30" as="geometry" />
        </mxCell>
        <mxCell id="HmzSfwOKwj8Bq_koUTHl-47" value="" style="shape=partialRectangle;overflow=hidden;connectable=0;fillColor=none;strokeColor=#009900;top=0;left=0;bottom=0;right=0;labelBackgroundColor=none;fontColor=#393C56;" parent="HmzSfwOKwj8Bq_koUTHl-46" vertex="1">
          <mxGeometry width="30" height="30" as="geometry">
            <mxRectangle width="30" height="30" as="alternateBounds" />
          </mxGeometry>
        </mxCell>
        <mxCell id="HmzSfwOKwj8Bq_koUTHl-48" value="Saved" style="shape=partialRectangle;overflow=hidden;connectable=0;fillColor=none;align=left;strokeColor=#009900;top=0;left=0;bottom=0;right=0;spacingLeft=6;labelBackgroundColor=none;fontColor=#393C56;" parent="HmzSfwOKwj8Bq_koUTHl-46" vertex="1">
          <mxGeometry x="30" width="150" height="30" as="geometry">
            <mxRectangle width="150" height="30" as="alternateBounds" />
          </mxGeometry>
        </mxCell>
        <mxCell id="HmzSfwOKwj8Bq_koUTHl-49" value="" style="shape=tableRow;horizontal=0;startSize=0;swimlaneHead=0;swimlaneBody=0;fillColor=none;collapsible=0;dropTarget=0;points=[[0,0.5],[1,0.5]];portConstraint=eastwest;strokeColor=#009900;top=0;left=0;right=0;bottom=0;labelBackgroundColor=none;fontColor=#393C56;" parent="HmzSfwOKwj8Bq_koUTHl-33" vertex="1">
          <mxGeometry y="180" width="180" height="30" as="geometry" />
        </mxCell>
        <mxCell id="HmzSfwOKwj8Bq_koUTHl-50" value="" style="shape=partialRectangle;overflow=hidden;connectable=0;fillColor=none;strokeColor=#009900;top=0;left=0;bottom=0;right=0;labelBackgroundColor=none;fontColor=#393C56;" parent="HmzSfwOKwj8Bq_koUTHl-49" vertex="1">
          <mxGeometry width="30" height="30" as="geometry">
            <mxRectangle width="30" height="30" as="alternateBounds" />
          </mxGeometry>
        </mxCell>
        <mxCell id="HmzSfwOKwj8Bq_koUTHl-51" value="Waiting " style="shape=partialRectangle;overflow=hidden;connectable=0;fillColor=none;align=left;strokeColor=#009900;top=0;left=0;bottom=0;right=0;spacingLeft=6;labelBackgroundColor=none;fontColor=#393C56;" parent="HmzSfwOKwj8Bq_koUTHl-49" vertex="1">
          <mxGeometry x="30" width="150" height="30" as="geometry">
            <mxRectangle width="150" height="30" as="alternateBounds" />
          </mxGeometry>
        </mxCell>
        <mxCell id="HmzSfwOKwj8Bq_koUTHl-52" value="" style="shape=tableRow;horizontal=0;startSize=0;swimlaneHead=0;swimlaneBody=0;fillColor=none;collapsible=0;dropTarget=0;points=[[0,0.5],[1,0.5]];portConstraint=eastwest;strokeColor=#009900;top=0;left=0;right=0;bottom=0;labelBackgroundColor=none;fontColor=#393C56;" parent="HmzSfwOKwj8Bq_koUTHl-33" vertex="1">
          <mxGeometry y="210" width="180" height="30" as="geometry" />
        </mxCell>
        <mxCell id="HmzSfwOKwj8Bq_koUTHl-53" value="" style="shape=partialRectangle;overflow=hidden;connectable=0;fillColor=none;strokeColor=#009900;top=0;left=0;bottom=0;right=0;labelBackgroundColor=none;fontColor=#393C56;" parent="HmzSfwOKwj8Bq_koUTHl-52" vertex="1">
          <mxGeometry width="30" height="30" as="geometry">
            <mxRectangle width="30" height="30" as="alternateBounds" />
          </mxGeometry>
        </mxCell>
        <mxCell id="HmzSfwOKwj8Bq_koUTHl-54" value="Subscript " style="shape=partialRectangle;overflow=hidden;connectable=0;fillColor=none;align=left;strokeColor=#009900;top=0;left=0;bottom=0;right=0;spacingLeft=6;labelBackgroundColor=none;fontColor=#393C56;" parent="HmzSfwOKwj8Bq_koUTHl-52" vertex="1">
          <mxGeometry x="30" width="150" height="30" as="geometry">
            <mxRectangle width="150" height="30" as="alternateBounds" />
          </mxGeometry>
        </mxCell>
        <mxCell id="HmzSfwOKwj8Bq_koUTHl-55" value="" style="shape=tableRow;horizontal=0;startSize=0;swimlaneHead=0;swimlaneBody=0;fillColor=none;collapsible=0;dropTarget=0;points=[[0,0.5],[1,0.5]];portConstraint=eastwest;strokeColor=#009900;top=0;left=0;right=0;bottom=0;labelBackgroundColor=none;fontColor=#393C56;" parent="HmzSfwOKwj8Bq_koUTHl-33" vertex="1">
          <mxGeometry y="240" width="180" height="30" as="geometry" />
        </mxCell>
        <mxCell id="HmzSfwOKwj8Bq_koUTHl-56" value="" style="shape=partialRectangle;overflow=hidden;connectable=0;fillColor=none;strokeColor=#009900;top=0;left=0;bottom=0;right=0;labelBackgroundColor=none;fontColor=#393C56;" parent="HmzSfwOKwj8Bq_koUTHl-55" vertex="1">
          <mxGeometry width="30" height="30" as="geometry">
            <mxRectangle width="30" height="30" as="alternateBounds" />
          </mxGeometry>
        </mxCell>
        <mxCell id="HmzSfwOKwj8Bq_koUTHl-57" value="Freq " style="shape=partialRectangle;overflow=hidden;connectable=0;fillColor=none;align=left;strokeColor=#009900;top=0;left=0;bottom=0;right=0;spacingLeft=6;labelBackgroundColor=none;fontColor=#393C56;" parent="HmzSfwOKwj8Bq_koUTHl-55" vertex="1">
          <mxGeometry x="30" width="150" height="30" as="geometry">
            <mxRectangle width="150" height="30" as="alternateBounds" />
          </mxGeometry>
        </mxCell>
        <mxCell id="HmzSfwOKwj8Bq_koUTHl-58" value="" style="shape=tableRow;horizontal=0;startSize=0;swimlaneHead=0;swimlaneBody=0;fillColor=none;collapsible=0;dropTarget=0;points=[[0,0.5],[1,0.5]];portConstraint=eastwest;strokeColor=#009900;top=0;left=0;right=0;bottom=0;labelBackgroundColor=none;fontColor=#393C56;" parent="HmzSfwOKwj8Bq_koUTHl-33" vertex="1">
          <mxGeometry y="270" width="180" height="30" as="geometry" />
        </mxCell>
        <mxCell id="HmzSfwOKwj8Bq_koUTHl-59" value="" style="shape=partialRectangle;overflow=hidden;connectable=0;fillColor=none;strokeColor=#009900;top=0;left=0;bottom=0;right=0;labelBackgroundColor=none;fontColor=#393C56;" parent="HmzSfwOKwj8Bq_koUTHl-58" vertex="1">
          <mxGeometry width="30" height="30" as="geometry">
            <mxRectangle width="30" height="30" as="alternateBounds" />
          </mxGeometry>
        </mxCell>
        <mxCell id="HmzSfwOKwj8Bq_koUTHl-60" value="SuppDate " style="shape=partialRectangle;overflow=hidden;connectable=0;fillColor=none;align=left;strokeColor=#009900;top=0;left=0;bottom=0;right=0;spacingLeft=6;labelBackgroundColor=none;fontColor=#393C56;" parent="HmzSfwOKwj8Bq_koUTHl-58" vertex="1">
          <mxGeometry x="30" width="150" height="30" as="geometry">
            <mxRectangle width="150" height="30" as="alternateBounds" />
          </mxGeometry>
        </mxCell>
        <mxCell id="HmzSfwOKwj8Bq_koUTHl-61" value="" style="shape=tableRow;horizontal=0;startSize=0;swimlaneHead=0;swimlaneBody=0;fillColor=none;collapsible=0;dropTarget=0;points=[[0,0.5],[1,0.5]];portConstraint=eastwest;strokeColor=#009900;top=0;left=0;right=0;bottom=0;labelBackgroundColor=none;fontColor=#393C56;" parent="HmzSfwOKwj8Bq_koUTHl-33" vertex="1">
          <mxGeometry y="300" width="180" height="30" as="geometry" />
        </mxCell>
        <mxCell id="HmzSfwOKwj8Bq_koUTHl-62" value="" style="shape=partialRectangle;overflow=hidden;connectable=0;fillColor=none;strokeColor=#009900;top=0;left=0;bottom=0;right=0;labelBackgroundColor=none;fontColor=#393C56;" parent="HmzSfwOKwj8Bq_koUTHl-61" vertex="1">
          <mxGeometry width="30" height="30" as="geometry">
            <mxRectangle width="30" height="30" as="alternateBounds" />
          </mxGeometry>
        </mxCell>
        <mxCell id="HmzSfwOKwj8Bq_koUTHl-63" value="OrderPercnt" style="shape=partialRectangle;overflow=hidden;connectable=0;fillColor=none;align=left;strokeColor=#009900;top=0;left=0;bottom=0;right=0;spacingLeft=6;labelBackgroundColor=none;fontColor=#393C56;" parent="HmzSfwOKwj8Bq_koUTHl-61" vertex="1">
          <mxGeometry x="30" width="150" height="30" as="geometry">
            <mxRectangle width="150" height="30" as="alternateBounds" />
          </mxGeometry>
        </mxCell>
        <mxCell id="HmzSfwOKwj8Bq_koUTHl-95" value="Invoices" style="shape=table;startSize=30;container=1;collapsible=1;childLayout=tableLayout;fixedRows=1;rowLines=0;fontStyle=1;align=center;resizeLast=1;labelBackgroundColor=none;fillColor=#e1d5e7;strokeColor=#9673A6;" parent="1" vertex="1">
          <mxGeometry x="-1090" y="50" width="140" height="240" as="geometry" />
        </mxCell>
        <mxCell id="HmzSfwOKwj8Bq_koUTHl-99" value="" style="shape=tableRow;horizontal=0;startSize=0;swimlaneHead=0;swimlaneBody=0;fillColor=none;collapsible=0;dropTarget=0;points=[[0,0.5],[1,0.5]];portConstraint=eastwest;strokeColor=#9673A6;top=0;left=0;right=0;bottom=1;labelBackgroundColor=none;fontColor=#393C56;" parent="HmzSfwOKwj8Bq_koUTHl-95" vertex="1">
          <mxGeometry y="30" width="140" height="30" as="geometry" />
        </mxCell>
        <mxCell id="HmzSfwOKwj8Bq_koUTHl-100" value="PK" style="shape=partialRectangle;overflow=hidden;connectable=0;fillColor=none;strokeColor=#9673A6;top=0;left=0;bottom=0;right=0;fontStyle=1;labelBackgroundColor=none;fontColor=#393C56;" parent="HmzSfwOKwj8Bq_koUTHl-99" vertex="1">
          <mxGeometry width="30" height="30" as="geometry">
            <mxRectangle width="30" height="30" as="alternateBounds" />
          </mxGeometry>
        </mxCell>
        <mxCell id="HmzSfwOKwj8Bq_koUTHl-101" value="InvNo  " style="shape=partialRectangle;overflow=hidden;connectable=0;fillColor=none;align=left;strokeColor=#9673A6;top=0;left=0;bottom=0;right=0;spacingLeft=6;fontStyle=5;labelBackgroundColor=none;fontColor=#393C56;" parent="HmzSfwOKwj8Bq_koUTHl-99" vertex="1">
          <mxGeometry x="30" width="110" height="30" as="geometry">
            <mxRectangle width="110" height="30" as="alternateBounds" />
          </mxGeometry>
        </mxCell>
        <mxCell id="HmzSfwOKwj8Bq_koUTHl-102" value="" style="shape=tableRow;horizontal=0;startSize=0;swimlaneHead=0;swimlaneBody=0;fillColor=none;collapsible=0;dropTarget=0;points=[[0,0.5],[1,0.5]];portConstraint=eastwest;strokeColor=#9673A6;top=0;left=0;right=0;bottom=0;labelBackgroundColor=none;fontColor=#393C56;" parent="HmzSfwOKwj8Bq_koUTHl-95" vertex="1">
          <mxGeometry y="60" width="140" height="30" as="geometry" />
        </mxCell>
        <mxCell id="HmzSfwOKwj8Bq_koUTHl-103" value="" style="shape=partialRectangle;overflow=hidden;connectable=0;fillColor=none;strokeColor=#9673A6;top=0;left=0;bottom=0;right=0;labelBackgroundColor=none;fontColor=#393C56;" parent="HmzSfwOKwj8Bq_koUTHl-102" vertex="1">
          <mxGeometry width="30" height="30" as="geometry">
            <mxRectangle width="30" height="30" as="alternateBounds" />
          </mxGeometry>
        </mxCell>
        <mxCell id="HmzSfwOKwj8Bq_koUTHl-104" value="Date" style="shape=partialRectangle;overflow=hidden;connectable=0;fillColor=none;align=left;strokeColor=#9673A6;top=0;left=0;bottom=0;right=0;spacingLeft=6;labelBackgroundColor=none;fontColor=#393C56;" parent="HmzSfwOKwj8Bq_koUTHl-102" vertex="1">
          <mxGeometry x="30" width="110" height="30" as="geometry">
            <mxRectangle width="110" height="30" as="alternateBounds" />
          </mxGeometry>
        </mxCell>
        <mxCell id="HmzSfwOKwj8Bq_koUTHl-96" value="" style="shape=tableRow;horizontal=0;startSize=0;swimlaneHead=0;swimlaneBody=0;fillColor=none;collapsible=0;dropTarget=0;points=[[0,0.5],[1,0.5]];portConstraint=eastwest;strokeColor=#9673A6;top=0;left=0;right=0;bottom=1;labelBackgroundColor=none;fontColor=#393C56;" parent="HmzSfwOKwj8Bq_koUTHl-95" vertex="1">
          <mxGeometry y="90" width="140" height="30" as="geometry" />
        </mxCell>
        <mxCell id="HmzSfwOKwj8Bq_koUTHl-97" value="FK" style="shape=partialRectangle;overflow=hidden;connectable=0;fillColor=none;strokeColor=#9673A6;top=0;left=0;bottom=0;right=0;fontStyle=1;labelBackgroundColor=none;fontColor=#393C56;" parent="HmzSfwOKwj8Bq_koUTHl-96" vertex="1">
          <mxGeometry width="30" height="30" as="geometry">
            <mxRectangle width="30" height="30" as="alternateBounds" />
          </mxGeometry>
        </mxCell>
        <mxCell id="HmzSfwOKwj8Bq_koUTHl-98" value="OrderNo " style="shape=partialRectangle;overflow=hidden;connectable=0;fillColor=none;align=left;strokeColor=#9673A6;top=0;left=0;bottom=0;right=0;spacingLeft=6;fontStyle=5;labelBackgroundColor=none;fontColor=#393C56;" parent="HmzSfwOKwj8Bq_koUTHl-96" vertex="1">
          <mxGeometry x="30" width="110" height="30" as="geometry">
            <mxRectangle width="110" height="30" as="alternateBounds" />
          </mxGeometry>
        </mxCell>
        <mxCell id="HmzSfwOKwj8Bq_koUTHl-105" value="" style="shape=tableRow;horizontal=0;startSize=0;swimlaneHead=0;swimlaneBody=0;fillColor=none;collapsible=0;dropTarget=0;points=[[0,0.5],[1,0.5]];portConstraint=eastwest;strokeColor=#9673A6;top=0;left=0;right=0;bottom=0;labelBackgroundColor=none;fontColor=#393C56;" parent="HmzSfwOKwj8Bq_koUTHl-95" vertex="1">
          <mxGeometry y="120" width="140" height="30" as="geometry" />
        </mxCell>
        <mxCell id="HmzSfwOKwj8Bq_koUTHl-106" value="" style="shape=partialRectangle;overflow=hidden;connectable=0;fillColor=none;strokeColor=#9673A6;top=0;left=0;bottom=0;right=0;labelBackgroundColor=none;fontColor=#393C56;" parent="HmzSfwOKwj8Bq_koUTHl-105" vertex="1">
          <mxGeometry width="30" height="30" as="geometry">
            <mxRectangle width="30" height="30" as="alternateBounds" />
          </mxGeometry>
        </mxCell>
        <mxCell id="HmzSfwOKwj8Bq_koUTHl-107" value="UnitDesc " style="shape=partialRectangle;overflow=hidden;connectable=0;fillColor=none;align=left;strokeColor=#9673A6;top=0;left=0;bottom=0;right=0;spacingLeft=6;labelBackgroundColor=none;fontColor=#393C56;" parent="HmzSfwOKwj8Bq_koUTHl-105" vertex="1">
          <mxGeometry x="30" width="110" height="30" as="geometry">
            <mxRectangle width="110" height="30" as="alternateBounds" />
          </mxGeometry>
        </mxCell>
        <mxCell id="HmzSfwOKwj8Bq_koUTHl-108" value="" style="shape=tableRow;horizontal=0;startSize=0;swimlaneHead=0;swimlaneBody=0;fillColor=none;collapsible=0;dropTarget=0;points=[[0,0.5],[1,0.5]];portConstraint=eastwest;strokeColor=#9673A6;top=0;left=0;right=0;bottom=0;labelBackgroundColor=none;fontColor=#393C56;" parent="HmzSfwOKwj8Bq_koUTHl-95" vertex="1">
          <mxGeometry y="150" width="140" height="30" as="geometry" />
        </mxCell>
        <mxCell id="HmzSfwOKwj8Bq_koUTHl-109" value="" style="shape=partialRectangle;overflow=hidden;connectable=0;fillColor=none;strokeColor=#9673A6;top=0;left=0;bottom=0;right=0;labelBackgroundColor=none;fontColor=#393C56;" parent="HmzSfwOKwj8Bq_koUTHl-108" vertex="1">
          <mxGeometry width="30" height="30" as="geometry">
            <mxRectangle width="30" height="30" as="alternateBounds" />
          </mxGeometry>
        </mxCell>
        <mxCell id="HmzSfwOKwj8Bq_koUTHl-110" value="NoUnits" style="shape=partialRectangle;overflow=hidden;connectable=0;fillColor=none;align=left;strokeColor=#9673A6;top=0;left=0;bottom=0;right=0;spacingLeft=6;labelBackgroundColor=none;fontColor=#393C56;" parent="HmzSfwOKwj8Bq_koUTHl-108" vertex="1">
          <mxGeometry x="30" width="110" height="30" as="geometry">
            <mxRectangle width="110" height="30" as="alternateBounds" />
          </mxGeometry>
        </mxCell>
        <mxCell id="HmzSfwOKwj8Bq_koUTHl-111" value="" style="shape=tableRow;horizontal=0;startSize=0;swimlaneHead=0;swimlaneBody=0;fillColor=none;collapsible=0;dropTarget=0;points=[[0,0.5],[1,0.5]];portConstraint=eastwest;strokeColor=#9673A6;top=0;left=0;right=0;bottom=0;labelBackgroundColor=none;fontColor=#393C56;" parent="HmzSfwOKwj8Bq_koUTHl-95" vertex="1">
          <mxGeometry y="180" width="140" height="30" as="geometry" />
        </mxCell>
        <mxCell id="HmzSfwOKwj8Bq_koUTHl-112" value="" style="shape=partialRectangle;overflow=hidden;connectable=0;fillColor=none;strokeColor=#9673A6;top=0;left=0;bottom=0;right=0;labelBackgroundColor=none;fontColor=#393C56;" parent="HmzSfwOKwj8Bq_koUTHl-111" vertex="1">
          <mxGeometry width="30" height="30" as="geometry">
            <mxRectangle width="30" height="30" as="alternateBounds" />
          </mxGeometry>
        </mxCell>
        <mxCell id="HmzSfwOKwj8Bq_koUTHl-113" value="UnitPrice " style="shape=partialRectangle;overflow=hidden;connectable=0;fillColor=none;align=left;strokeColor=#9673A6;top=0;left=0;bottom=0;right=0;spacingLeft=6;labelBackgroundColor=none;fontColor=#393C56;" parent="HmzSfwOKwj8Bq_koUTHl-111" vertex="1">
          <mxGeometry x="30" width="110" height="30" as="geometry">
            <mxRectangle width="110" height="30" as="alternateBounds" />
          </mxGeometry>
        </mxCell>
        <mxCell id="HmzSfwOKwj8Bq_koUTHl-114" value="" style="shape=tableRow;horizontal=0;startSize=0;swimlaneHead=0;swimlaneBody=0;fillColor=none;collapsible=0;dropTarget=0;points=[[0,0.5],[1,0.5]];portConstraint=eastwest;strokeColor=#9673A6;top=0;left=0;right=0;bottom=0;labelBackgroundColor=none;fontColor=#393C56;" parent="HmzSfwOKwj8Bq_koUTHl-95" vertex="1">
          <mxGeometry y="210" width="140" height="30" as="geometry" />
        </mxCell>
        <mxCell id="HmzSfwOKwj8Bq_koUTHl-115" value="" style="shape=partialRectangle;overflow=hidden;connectable=0;fillColor=none;strokeColor=#9673A6;top=0;left=0;bottom=0;right=0;labelBackgroundColor=none;fontColor=#393C56;" parent="HmzSfwOKwj8Bq_koUTHl-114" vertex="1">
          <mxGeometry width="30" height="30" as="geometry">
            <mxRectangle width="30" height="30" as="alternateBounds" />
          </mxGeometry>
        </mxCell>
        <mxCell id="HmzSfwOKwj8Bq_koUTHl-116" value="TotAmount " style="shape=partialRectangle;overflow=hidden;connectable=0;fillColor=none;align=left;strokeColor=#9673A6;top=0;left=0;bottom=0;right=0;spacingLeft=6;labelBackgroundColor=none;fontColor=#393C56;" parent="HmzSfwOKwj8Bq_koUTHl-114" vertex="1">
          <mxGeometry x="30" width="110" height="30" as="geometry">
            <mxRectangle width="110" height="30" as="alternateBounds" />
          </mxGeometry>
        </mxCell>
        <mxCell id="HmzSfwOKwj8Bq_koUTHl-120" value="Customers" style="shape=table;startSize=30;container=1;collapsible=1;childLayout=tableLayout;fixedRows=1;rowLines=0;fontStyle=1;align=center;resizeLast=1;labelBackgroundColor=none;fillColor=#fad9d5;strokeColor=#FF9999;" parent="1" vertex="1">
          <mxGeometry x="-1280" y="10" width="120" height="300" as="geometry" />
        </mxCell>
        <mxCell id="HmzSfwOKwj8Bq_koUTHl-121" value="" style="shape=tableRow;horizontal=0;startSize=0;swimlaneHead=0;swimlaneBody=0;fillColor=none;collapsible=0;dropTarget=0;points=[[0,0.5],[1,0.5]];portConstraint=eastwest;strokeColor=#FF9999;top=0;left=0;right=0;bottom=1;labelBackgroundColor=none;fontColor=#393C56;" parent="HmzSfwOKwj8Bq_koUTHl-120" vertex="1">
          <mxGeometry y="30" width="120" height="30" as="geometry" />
        </mxCell>
        <mxCell id="HmzSfwOKwj8Bq_koUTHl-122" value="PK" style="shape=partialRectangle;overflow=hidden;connectable=0;fillColor=none;strokeColor=#FF9999;top=0;left=0;bottom=0;right=0;fontStyle=1;labelBackgroundColor=none;fontColor=#393C56;" parent="HmzSfwOKwj8Bq_koUTHl-121" vertex="1">
          <mxGeometry width="30" height="30" as="geometry">
            <mxRectangle width="30" height="30" as="alternateBounds" />
          </mxGeometry>
        </mxCell>
        <mxCell id="HmzSfwOKwj8Bq_koUTHl-123" value="CustID " style="shape=partialRectangle;overflow=hidden;connectable=0;fillColor=none;align=left;strokeColor=#FF9999;top=0;left=0;bottom=0;right=0;spacingLeft=6;fontStyle=5;labelBackgroundColor=none;fontColor=#393C56;" parent="HmzSfwOKwj8Bq_koUTHl-121" vertex="1">
          <mxGeometry x="30" width="90" height="30" as="geometry">
            <mxRectangle width="90" height="30" as="alternateBounds" />
          </mxGeometry>
        </mxCell>
        <mxCell id="HmzSfwOKwj8Bq_koUTHl-124" value="" style="shape=tableRow;horizontal=0;startSize=0;swimlaneHead=0;swimlaneBody=0;fillColor=none;collapsible=0;dropTarget=0;points=[[0,0.5],[1,0.5]];portConstraint=eastwest;strokeColor=#FF9999;top=0;left=0;right=0;bottom=0;labelBackgroundColor=none;fontColor=#393C56;" parent="HmzSfwOKwj8Bq_koUTHl-120" vertex="1">
          <mxGeometry y="60" width="120" height="30" as="geometry" />
        </mxCell>
        <mxCell id="HmzSfwOKwj8Bq_koUTHl-125" value="" style="shape=partialRectangle;overflow=hidden;connectable=0;fillColor=none;strokeColor=#FF9999;top=0;left=0;bottom=0;right=0;labelBackgroundColor=none;fontColor=#393C56;" parent="HmzSfwOKwj8Bq_koUTHl-124" vertex="1">
          <mxGeometry width="30" height="30" as="geometry">
            <mxRectangle width="30" height="30" as="alternateBounds" />
          </mxGeometry>
        </mxCell>
        <mxCell id="HmzSfwOKwj8Bq_koUTHl-126" value="CustType" style="shape=partialRectangle;overflow=hidden;connectable=0;fillColor=none;align=left;strokeColor=#FF9999;top=0;left=0;bottom=0;right=0;spacingLeft=6;labelBackgroundColor=none;fontColor=#393C56;" parent="HmzSfwOKwj8Bq_koUTHl-124" vertex="1">
          <mxGeometry x="30" width="90" height="30" as="geometry">
            <mxRectangle width="90" height="30" as="alternateBounds" />
          </mxGeometry>
        </mxCell>
        <mxCell id="HmzSfwOKwj8Bq_koUTHl-127" value="" style="shape=tableRow;horizontal=0;startSize=0;swimlaneHead=0;swimlaneBody=0;fillColor=none;collapsible=0;dropTarget=0;points=[[0,0.5],[1,0.5]];portConstraint=eastwest;strokeColor=#FF9999;top=0;left=0;right=0;bottom=0;labelBackgroundColor=none;fontColor=#393C56;" parent="HmzSfwOKwj8Bq_koUTHl-120" vertex="1">
          <mxGeometry y="90" width="120" height="30" as="geometry" />
        </mxCell>
        <mxCell id="HmzSfwOKwj8Bq_koUTHl-128" value="" style="shape=partialRectangle;overflow=hidden;connectable=0;fillColor=none;strokeColor=#FF9999;top=0;left=0;bottom=0;right=0;labelBackgroundColor=none;fontColor=#393C56;" parent="HmzSfwOKwj8Bq_koUTHl-127" vertex="1">
          <mxGeometry width="30" height="30" as="geometry">
            <mxRectangle width="30" height="30" as="alternateBounds" />
          </mxGeometry>
        </mxCell>
        <mxCell id="HmzSfwOKwj8Bq_koUTHl-129" value="CustStatus " style="shape=partialRectangle;overflow=hidden;connectable=0;fillColor=none;align=left;strokeColor=#FF9999;top=0;left=0;bottom=0;right=0;spacingLeft=6;labelBackgroundColor=none;fontColor=#393C56;" parent="HmzSfwOKwj8Bq_koUTHl-127" vertex="1">
          <mxGeometry x="30" width="90" height="30" as="geometry">
            <mxRectangle width="90" height="30" as="alternateBounds" />
          </mxGeometry>
        </mxCell>
        <mxCell id="HmzSfwOKwj8Bq_koUTHl-130" value="" style="shape=tableRow;horizontal=0;startSize=0;swimlaneHead=0;swimlaneBody=0;fillColor=none;collapsible=0;dropTarget=0;points=[[0,0.5],[1,0.5]];portConstraint=eastwest;strokeColor=#FF9999;top=0;left=0;right=0;bottom=0;labelBackgroundColor=none;fontColor=#393C56;" parent="HmzSfwOKwj8Bq_koUTHl-120" vertex="1">
          <mxGeometry y="120" width="120" height="30" as="geometry" />
        </mxCell>
        <mxCell id="HmzSfwOKwj8Bq_koUTHl-131" value="" style="shape=partialRectangle;overflow=hidden;connectable=0;fillColor=none;strokeColor=#FF9999;top=0;left=0;bottom=0;right=0;labelBackgroundColor=none;fontColor=#393C56;" parent="HmzSfwOKwj8Bq_koUTHl-130" vertex="1">
          <mxGeometry width="30" height="30" as="geometry">
            <mxRectangle width="30" height="30" as="alternateBounds" />
          </mxGeometry>
        </mxCell>
        <mxCell id="HmzSfwOKwj8Bq_koUTHl-132" value="FreezCode" style="shape=partialRectangle;overflow=hidden;connectable=0;fillColor=none;align=left;strokeColor=#FF9999;top=0;left=0;bottom=0;right=0;spacingLeft=6;labelBackgroundColor=none;fontColor=#393C56;" parent="HmzSfwOKwj8Bq_koUTHl-130" vertex="1">
          <mxGeometry x="30" width="90" height="30" as="geometry">
            <mxRectangle width="90" height="30" as="alternateBounds" />
          </mxGeometry>
        </mxCell>
        <mxCell id="HmzSfwOKwj8Bq_koUTHl-133" value="" style="shape=tableRow;horizontal=0;startSize=0;swimlaneHead=0;swimlaneBody=0;fillColor=none;collapsible=0;dropTarget=0;points=[[0,0.5],[1,0.5]];portConstraint=eastwest;strokeColor=#FF9999;top=0;left=0;right=0;bottom=0;labelBackgroundColor=none;fontColor=#393C56;" parent="HmzSfwOKwj8Bq_koUTHl-120" vertex="1">
          <mxGeometry y="150" width="120" height="30" as="geometry" />
        </mxCell>
        <mxCell id="HmzSfwOKwj8Bq_koUTHl-134" value="" style="shape=partialRectangle;overflow=hidden;connectable=0;fillColor=none;strokeColor=#FF9999;top=0;left=0;bottom=0;right=0;labelBackgroundColor=none;fontColor=#393C56;" parent="HmzSfwOKwj8Bq_koUTHl-133" vertex="1">
          <mxGeometry width="30" height="30" as="geometry">
            <mxRectangle width="30" height="30" as="alternateBounds" />
          </mxGeometry>
        </mxCell>
        <mxCell id="HmzSfwOKwj8Bq_koUTHl-135" value="OverCount" style="shape=partialRectangle;overflow=hidden;connectable=0;fillColor=none;align=left;strokeColor=#FF9999;top=0;left=0;bottom=0;right=0;spacingLeft=6;labelBackgroundColor=none;fontColor=#393C56;" parent="HmzSfwOKwj8Bq_koUTHl-133" vertex="1">
          <mxGeometry x="30" width="90" height="30" as="geometry">
            <mxRectangle width="90" height="30" as="alternateBounds" />
          </mxGeometry>
        </mxCell>
        <mxCell id="HmzSfwOKwj8Bq_koUTHl-136" value="" style="shape=tableRow;horizontal=0;startSize=0;swimlaneHead=0;swimlaneBody=0;fillColor=none;collapsible=0;dropTarget=0;points=[[0,0.5],[1,0.5]];portConstraint=eastwest;strokeColor=#FF9999;top=0;left=0;right=0;bottom=0;labelBackgroundColor=none;fontColor=#393C56;" parent="HmzSfwOKwj8Bq_koUTHl-120" vertex="1">
          <mxGeometry y="180" width="120" height="30" as="geometry" />
        </mxCell>
        <mxCell id="HmzSfwOKwj8Bq_koUTHl-137" value="" style="shape=partialRectangle;overflow=hidden;connectable=0;fillColor=none;strokeColor=#FF9999;top=0;left=0;bottom=0;right=0;labelBackgroundColor=none;fontColor=#393C56;" parent="HmzSfwOKwj8Bq_koUTHl-136" vertex="1">
          <mxGeometry width="30" height="30" as="geometry">
            <mxRectangle width="30" height="30" as="alternateBounds" />
          </mxGeometry>
        </mxCell>
        <mxCell id="HmzSfwOKwj8Bq_koUTHl-138" value="CustName" style="shape=partialRectangle;overflow=hidden;connectable=0;fillColor=none;align=left;strokeColor=#FF9999;top=0;left=0;bottom=0;right=0;spacingLeft=6;labelBackgroundColor=none;fontColor=#393C56;" parent="HmzSfwOKwj8Bq_koUTHl-136" vertex="1">
          <mxGeometry x="30" width="90" height="30" as="geometry">
            <mxRectangle width="90" height="30" as="alternateBounds" />
          </mxGeometry>
        </mxCell>
        <mxCell id="HmzSfwOKwj8Bq_koUTHl-139" value="" style="shape=tableRow;horizontal=0;startSize=0;swimlaneHead=0;swimlaneBody=0;fillColor=none;collapsible=0;dropTarget=0;points=[[0,0.5],[1,0.5]];portConstraint=eastwest;strokeColor=#FF9999;top=0;left=0;right=0;bottom=0;labelBackgroundColor=none;fontColor=#393C56;" parent="HmzSfwOKwj8Bq_koUTHl-120" vertex="1">
          <mxGeometry y="210" width="120" height="30" as="geometry" />
        </mxCell>
        <mxCell id="HmzSfwOKwj8Bq_koUTHl-140" value="" style="shape=partialRectangle;overflow=hidden;connectable=0;fillColor=none;strokeColor=#FF9999;top=0;left=0;bottom=0;right=0;labelBackgroundColor=none;fontColor=#393C56;" parent="HmzSfwOKwj8Bq_koUTHl-139" vertex="1">
          <mxGeometry width="30" height="30" as="geometry">
            <mxRectangle width="30" height="30" as="alternateBounds" />
          </mxGeometry>
        </mxCell>
        <mxCell id="HmzSfwOKwj8Bq_koUTHl-141" value="DelivAddress" style="shape=partialRectangle;overflow=hidden;connectable=0;fillColor=none;align=left;strokeColor=#FF9999;top=0;left=0;bottom=0;right=0;spacingLeft=6;labelBackgroundColor=none;fontColor=#393C56;" parent="HmzSfwOKwj8Bq_koUTHl-139" vertex="1">
          <mxGeometry x="30" width="90" height="30" as="geometry">
            <mxRectangle width="90" height="30" as="alternateBounds" />
          </mxGeometry>
        </mxCell>
        <mxCell id="HmzSfwOKwj8Bq_koUTHl-142" value="" style="shape=tableRow;horizontal=0;startSize=0;swimlaneHead=0;swimlaneBody=0;fillColor=none;collapsible=0;dropTarget=0;points=[[0,0.5],[1,0.5]];portConstraint=eastwest;strokeColor=#FF9999;top=0;left=0;right=0;bottom=0;labelBackgroundColor=none;fontColor=#393C56;" parent="HmzSfwOKwj8Bq_koUTHl-120" vertex="1">
          <mxGeometry y="240" width="120" height="30" as="geometry" />
        </mxCell>
        <mxCell id="HmzSfwOKwj8Bq_koUTHl-143" value="" style="shape=partialRectangle;overflow=hidden;connectable=0;fillColor=none;strokeColor=#FF9999;top=0;left=0;bottom=0;right=0;labelBackgroundColor=none;fontColor=#393C56;" parent="HmzSfwOKwj8Bq_koUTHl-142" vertex="1">
          <mxGeometry width="30" height="30" as="geometry">
            <mxRectangle width="30" height="30" as="alternateBounds" />
          </mxGeometry>
        </mxCell>
        <mxCell id="HmzSfwOKwj8Bq_koUTHl-144" value="MailAddrss" style="shape=partialRectangle;overflow=hidden;connectable=0;fillColor=none;align=left;strokeColor=#FF9999;top=0;left=0;bottom=0;right=0;spacingLeft=6;labelBackgroundColor=none;fontColor=#393C56;" parent="HmzSfwOKwj8Bq_koUTHl-142" vertex="1">
          <mxGeometry x="30" width="90" height="30" as="geometry">
            <mxRectangle width="90" height="30" as="alternateBounds" />
          </mxGeometry>
        </mxCell>
        <mxCell id="HmzSfwOKwj8Bq_koUTHl-145" value="" style="shape=tableRow;horizontal=0;startSize=0;swimlaneHead=0;swimlaneBody=0;fillColor=none;collapsible=0;dropTarget=0;points=[[0,0.5],[1,0.5]];portConstraint=eastwest;strokeColor=#FF9999;top=0;left=0;right=0;bottom=0;labelBackgroundColor=none;fontColor=#393C56;" parent="HmzSfwOKwj8Bq_koUTHl-120" vertex="1">
          <mxGeometry y="270" width="120" height="30" as="geometry" />
        </mxCell>
        <mxCell id="HmzSfwOKwj8Bq_koUTHl-146" value="" style="shape=partialRectangle;overflow=hidden;connectable=0;fillColor=none;strokeColor=#FF9999;top=0;left=0;bottom=0;right=0;labelBackgroundColor=none;fontColor=#393C56;" parent="HmzSfwOKwj8Bq_koUTHl-145" vertex="1">
          <mxGeometry width="30" height="30" as="geometry">
            <mxRectangle width="30" height="30" as="alternateBounds" />
          </mxGeometry>
        </mxCell>
        <mxCell id="HmzSfwOKwj8Bq_koUTHl-147" value="CreditCard" style="shape=partialRectangle;overflow=hidden;connectable=0;fillColor=none;align=left;strokeColor=#FF9999;top=0;left=0;bottom=0;right=0;spacingLeft=6;labelBackgroundColor=none;fontColor=#393C56;" parent="HmzSfwOKwj8Bq_koUTHl-145" vertex="1">
          <mxGeometry x="30" width="90" height="30" as="geometry">
            <mxRectangle width="90" height="30" as="alternateBounds" />
          </mxGeometry>
        </mxCell>
        <mxCell id="HmzSfwOKwj8Bq_koUTHl-148" value="Subscription" style="shape=table;startSize=30;container=1;collapsible=1;childLayout=tableLayout;fixedRows=1;rowLines=0;fontStyle=1;align=center;resizeLast=1;labelBackgroundColor=none;strokeColor=default;" parent="1" vertex="1">
          <mxGeometry x="-1460" y="20" width="130" height="300.0000000000002" as="geometry" />
        </mxCell>
        <mxCell id="HmzSfwOKwj8Bq_koUTHl-155" value="" style="shape=tableRow;horizontal=0;startSize=0;swimlaneHead=0;swimlaneBody=0;fillColor=none;collapsible=0;dropTarget=0;points=[[0,0.5],[1,0.5]];portConstraint=eastwest;strokeColor=default;top=0;left=0;right=0;bottom=1;labelBackgroundColor=none;fontColor=#393C56;" parent="HmzSfwOKwj8Bq_koUTHl-148" vertex="1">
          <mxGeometry y="30" width="130" height="30" as="geometry" />
        </mxCell>
        <mxCell id="HmzSfwOKwj8Bq_koUTHl-156" value="FK" style="shape=partialRectangle;overflow=hidden;connectable=0;fillColor=none;strokeColor=default;top=0;left=0;bottom=0;right=0;fontStyle=1;labelBackgroundColor=none;fontColor=#393C56;" parent="HmzSfwOKwj8Bq_koUTHl-155" vertex="1">
          <mxGeometry width="30" height="30" as="geometry">
            <mxRectangle width="30" height="30" as="alternateBounds" />
          </mxGeometry>
        </mxCell>
        <mxCell id="HmzSfwOKwj8Bq_koUTHl-157" value="OrderNo " style="shape=partialRectangle;overflow=hidden;connectable=0;fillColor=none;align=left;strokeColor=default;top=0;left=0;bottom=0;right=0;spacingLeft=6;fontStyle=1;labelBackgroundColor=none;fontColor=#393C56;" parent="HmzSfwOKwj8Bq_koUTHl-155" vertex="1">
          <mxGeometry x="30" width="100" height="30" as="geometry">
            <mxRectangle width="100" height="30" as="alternateBounds" />
          </mxGeometry>
        </mxCell>
        <mxCell id="HmzSfwOKwj8Bq_koUTHl-158" value="" style="shape=tableRow;horizontal=0;startSize=0;swimlaneHead=0;swimlaneBody=0;fillColor=none;collapsible=0;dropTarget=0;points=[[0,0.5],[1,0.5]];portConstraint=eastwest;strokeColor=default;top=0;left=0;right=0;bottom=0;labelBackgroundColor=none;fontColor=#393C56;" parent="HmzSfwOKwj8Bq_koUTHl-148" vertex="1">
          <mxGeometry y="60" width="130" height="30" as="geometry" />
        </mxCell>
        <mxCell id="HmzSfwOKwj8Bq_koUTHl-159" value="" style="shape=partialRectangle;overflow=hidden;connectable=0;fillColor=none;strokeColor=default;top=0;left=0;bottom=0;right=0;labelBackgroundColor=none;fontColor=#393C56;" parent="HmzSfwOKwj8Bq_koUTHl-158" vertex="1">
          <mxGeometry width="30" height="30" as="geometry">
            <mxRectangle width="30" height="30" as="alternateBounds" />
          </mxGeometry>
        </mxCell>
        <mxCell id="HmzSfwOKwj8Bq_koUTHl-160" value="Status" style="shape=partialRectangle;overflow=hidden;connectable=0;fillColor=none;align=left;strokeColor=default;top=0;left=0;bottom=0;right=0;spacingLeft=6;labelBackgroundColor=none;fontColor=#393C56;" parent="HmzSfwOKwj8Bq_koUTHl-158" vertex="1">
          <mxGeometry x="30" width="100" height="30" as="geometry">
            <mxRectangle width="100" height="30" as="alternateBounds" />
          </mxGeometry>
        </mxCell>
        <mxCell id="HmzSfwOKwj8Bq_koUTHl-152" value="" style="shape=tableRow;horizontal=0;startSize=0;swimlaneHead=0;swimlaneBody=0;fillColor=none;collapsible=0;dropTarget=0;points=[[0,0.5],[1,0.5]];portConstraint=eastwest;strokeColor=default;top=0;left=0;right=0;bottom=1;labelBackgroundColor=none;fontColor=#393C56;" parent="HmzSfwOKwj8Bq_koUTHl-148" vertex="1">
          <mxGeometry y="90" width="130" height="30" as="geometry" />
        </mxCell>
        <mxCell id="HmzSfwOKwj8Bq_koUTHl-153" value="FK" style="shape=partialRectangle;overflow=hidden;connectable=0;fillColor=none;strokeColor=default;top=0;left=0;bottom=0;right=0;fontStyle=1;labelBackgroundColor=none;fontColor=#393C56;" parent="HmzSfwOKwj8Bq_koUTHl-152" vertex="1">
          <mxGeometry width="30" height="30" as="geometry">
            <mxRectangle width="30" height="30" as="alternateBounds" />
          </mxGeometry>
        </mxCell>
        <mxCell id="HmzSfwOKwj8Bq_koUTHl-154" value="CustID " style="shape=partialRectangle;overflow=hidden;connectable=0;fillColor=none;align=left;strokeColor=default;top=0;left=0;bottom=0;right=0;spacingLeft=6;fontStyle=1;labelBackgroundColor=none;fontColor=#393C56;" parent="HmzSfwOKwj8Bq_koUTHl-152" vertex="1">
          <mxGeometry x="30" width="100" height="30" as="geometry">
            <mxRectangle width="100" height="30" as="alternateBounds" />
          </mxGeometry>
        </mxCell>
        <mxCell id="HmzSfwOKwj8Bq_koUTHl-149" value="" style="shape=tableRow;horizontal=0;startSize=0;swimlaneHead=0;swimlaneBody=0;fillColor=none;collapsible=0;dropTarget=0;points=[[0,0.5],[1,0.5]];portConstraint=eastwest;strokeColor=default;top=0;left=0;right=0;bottom=1;labelBackgroundColor=none;fontColor=#393C56;" parent="HmzSfwOKwj8Bq_koUTHl-148" vertex="1">
          <mxGeometry y="120" width="130" height="30" as="geometry" />
        </mxCell>
        <mxCell id="HmzSfwOKwj8Bq_koUTHl-150" value="FK" style="shape=partialRectangle;overflow=hidden;connectable=0;fillColor=none;strokeColor=default;top=0;left=0;bottom=0;right=0;fontStyle=1;labelBackgroundColor=none;fontColor=#393C56;" parent="HmzSfwOKwj8Bq_koUTHl-149" vertex="1">
          <mxGeometry width="30" height="30" as="geometry">
            <mxRectangle width="30" height="30" as="alternateBounds" />
          </mxGeometry>
        </mxCell>
        <mxCell id="HmzSfwOKwj8Bq_koUTHl-151" value="Code" style="shape=partialRectangle;overflow=hidden;connectable=0;fillColor=none;align=left;strokeColor=default;top=0;left=0;bottom=0;right=0;spacingLeft=6;fontStyle=1;labelBackgroundColor=none;fontColor=#393C56;" parent="HmzSfwOKwj8Bq_koUTHl-149" vertex="1">
          <mxGeometry x="30" width="100" height="30" as="geometry">
            <mxRectangle width="100" height="30" as="alternateBounds" />
          </mxGeometry>
        </mxCell>
        <mxCell id="HmzSfwOKwj8Bq_koUTHl-161" value="" style="shape=tableRow;horizontal=0;startSize=0;swimlaneHead=0;swimlaneBody=0;fillColor=none;collapsible=0;dropTarget=0;points=[[0,0.5],[1,0.5]];portConstraint=eastwest;strokeColor=default;top=0;left=0;right=0;bottom=0;labelBackgroundColor=none;fontColor=#393C56;" parent="HmzSfwOKwj8Bq_koUTHl-148" vertex="1">
          <mxGeometry y="150" width="130" height="30" as="geometry" />
        </mxCell>
        <mxCell id="HmzSfwOKwj8Bq_koUTHl-162" value="" style="shape=partialRectangle;overflow=hidden;connectable=0;fillColor=none;strokeColor=default;top=0;left=0;bottom=0;right=0;labelBackgroundColor=none;fontColor=#393C56;" parent="HmzSfwOKwj8Bq_koUTHl-161" vertex="1">
          <mxGeometry width="30" height="30" as="geometry">
            <mxRectangle width="30" height="30" as="alternateBounds" />
          </mxGeometry>
        </mxCell>
        <mxCell id="HmzSfwOKwj8Bq_koUTHl-163" value="Quant " style="shape=partialRectangle;overflow=hidden;connectable=0;fillColor=none;align=left;strokeColor=default;top=0;left=0;bottom=0;right=0;spacingLeft=6;labelBackgroundColor=none;fontColor=#393C56;" parent="HmzSfwOKwj8Bq_koUTHl-161" vertex="1">
          <mxGeometry x="30" width="100" height="30" as="geometry">
            <mxRectangle width="100" height="30" as="alternateBounds" />
          </mxGeometry>
        </mxCell>
        <mxCell id="HmzSfwOKwj8Bq_koUTHl-164" value="" style="shape=tableRow;horizontal=0;startSize=0;swimlaneHead=0;swimlaneBody=0;fillColor=none;collapsible=0;dropTarget=0;points=[[0,0.5],[1,0.5]];portConstraint=eastwest;strokeColor=default;top=0;left=0;right=0;bottom=0;labelBackgroundColor=none;fontColor=#393C56;" parent="HmzSfwOKwj8Bq_koUTHl-148" vertex="1">
          <mxGeometry y="180" width="130" height="30" as="geometry" />
        </mxCell>
        <mxCell id="HmzSfwOKwj8Bq_koUTHl-165" value="" style="shape=partialRectangle;overflow=hidden;connectable=0;fillColor=none;strokeColor=default;top=0;left=0;bottom=0;right=0;labelBackgroundColor=none;fontColor=#393C56;" parent="HmzSfwOKwj8Bq_koUTHl-164" vertex="1">
          <mxGeometry width="30" height="30" as="geometry">
            <mxRectangle width="30" height="30" as="alternateBounds" />
          </mxGeometry>
        </mxCell>
        <mxCell id="HmzSfwOKwj8Bq_koUTHl-166" value="Freq " style="shape=partialRectangle;overflow=hidden;connectable=0;fillColor=none;align=left;strokeColor=default;top=0;left=0;bottom=0;right=0;spacingLeft=6;labelBackgroundColor=none;fontColor=#393C56;" parent="HmzSfwOKwj8Bq_koUTHl-164" vertex="1">
          <mxGeometry x="30" width="100" height="30" as="geometry">
            <mxRectangle width="100" height="30" as="alternateBounds" />
          </mxGeometry>
        </mxCell>
        <mxCell id="HmzSfwOKwj8Bq_koUTHl-167" value="" style="shape=tableRow;horizontal=0;startSize=0;swimlaneHead=0;swimlaneBody=0;fillColor=none;collapsible=0;dropTarget=0;points=[[0,0.5],[1,0.5]];portConstraint=eastwest;strokeColor=default;top=0;left=0;right=0;bottom=0;labelBackgroundColor=none;fontColor=#393C56;" parent="HmzSfwOKwj8Bq_koUTHl-148" vertex="1">
          <mxGeometry y="210" width="130" height="30" as="geometry" />
        </mxCell>
        <mxCell id="HmzSfwOKwj8Bq_koUTHl-168" value="" style="shape=partialRectangle;overflow=hidden;connectable=0;fillColor=none;strokeColor=default;top=0;left=0;bottom=0;right=0;labelBackgroundColor=none;fontColor=#393C56;" parent="HmzSfwOKwj8Bq_koUTHl-167" vertex="1">
          <mxGeometry width="30" height="30" as="geometry">
            <mxRectangle width="30" height="30" as="alternateBounds" />
          </mxGeometry>
        </mxCell>
        <mxCell id="HmzSfwOKwj8Bq_koUTHl-169" value="Delivery " style="shape=partialRectangle;overflow=hidden;connectable=0;fillColor=none;align=left;strokeColor=default;top=0;left=0;bottom=0;right=0;spacingLeft=6;labelBackgroundColor=none;fontColor=#393C56;" parent="HmzSfwOKwj8Bq_koUTHl-167" vertex="1">
          <mxGeometry x="30" width="100" height="30" as="geometry">
            <mxRectangle width="100" height="30" as="alternateBounds" />
          </mxGeometry>
        </mxCell>
        <mxCell id="HmzSfwOKwj8Bq_koUTHl-170" value="" style="shape=tableRow;horizontal=0;startSize=0;swimlaneHead=0;swimlaneBody=0;fillColor=none;collapsible=0;dropTarget=0;points=[[0,0.5],[1,0.5]];portConstraint=eastwest;strokeColor=default;top=0;left=0;right=0;bottom=0;labelBackgroundColor=none;fontColor=#393C56;" parent="HmzSfwOKwj8Bq_koUTHl-148" vertex="1">
          <mxGeometry y="240" width="130" height="30" as="geometry" />
        </mxCell>
        <mxCell id="HmzSfwOKwj8Bq_koUTHl-171" value="" style="shape=partialRectangle;overflow=hidden;connectable=0;fillColor=none;strokeColor=default;top=0;left=0;bottom=0;right=0;labelBackgroundColor=none;fontColor=#393C56;" parent="HmzSfwOKwj8Bq_koUTHl-170" vertex="1">
          <mxGeometry width="30" height="30" as="geometry">
            <mxRectangle width="30" height="30" as="alternateBounds" />
          </mxGeometry>
        </mxCell>
        <mxCell id="HmzSfwOKwj8Bq_koUTHl-172" value="NextOrder" style="shape=partialRectangle;overflow=hidden;connectable=0;fillColor=none;align=left;strokeColor=default;top=0;left=0;bottom=0;right=0;spacingLeft=6;labelBackgroundColor=none;fontColor=#393C56;" parent="HmzSfwOKwj8Bq_koUTHl-170" vertex="1">
          <mxGeometry x="30" width="100" height="30" as="geometry">
            <mxRectangle width="100" height="30" as="alternateBounds" />
          </mxGeometry>
        </mxCell>
        <mxCell id="HmzSfwOKwj8Bq_koUTHl-173" value="" style="shape=tableRow;horizontal=0;startSize=0;swimlaneHead=0;swimlaneBody=0;fillColor=none;collapsible=0;dropTarget=0;points=[[0,0.5],[1,0.5]];portConstraint=eastwest;strokeColor=default;top=0;left=0;right=0;bottom=0;labelBackgroundColor=none;fontColor=#393C56;" parent="HmzSfwOKwj8Bq_koUTHl-148" vertex="1">
          <mxGeometry y="270" width="130" height="30" as="geometry" />
        </mxCell>
        <mxCell id="HmzSfwOKwj8Bq_koUTHl-174" value="" style="shape=partialRectangle;overflow=hidden;connectable=0;fillColor=none;strokeColor=default;top=0;left=0;bottom=0;right=0;labelBackgroundColor=none;fontColor=#393C56;" parent="HmzSfwOKwj8Bq_koUTHl-173" vertex="1">
          <mxGeometry width="30" height="30" as="geometry">
            <mxRectangle width="30" height="30" as="alternateBounds" />
          </mxGeometry>
        </mxCell>
        <mxCell id="HmzSfwOKwj8Bq_koUTHl-175" value="Expiration " style="shape=partialRectangle;overflow=hidden;connectable=0;fillColor=none;align=left;strokeColor=default;top=0;left=0;bottom=0;right=0;spacingLeft=6;labelBackgroundColor=none;fontColor=#393C56;" parent="HmzSfwOKwj8Bq_koUTHl-173" vertex="1">
          <mxGeometry x="30" width="100" height="30" as="geometry">
            <mxRectangle width="100" height="30" as="alternateBounds" />
          </mxGeometry>
        </mxCell>
        <mxCell id="HmzSfwOKwj8Bq_koUTHl-185" value="Receipt" style="shape=table;startSize=30;container=1;collapsible=1;childLayout=tableLayout;fixedRows=1;rowLines=0;fontStyle=1;align=center;resizeLast=1;labelBackgroundColor=none;fillColor=#BAB400;strokeColor=#6B6700;fontColor=#393C56;" parent="1" vertex="1">
          <mxGeometry x="-1090" y="320" width="110" height="180" as="geometry" />
        </mxCell>
        <mxCell id="HmzSfwOKwj8Bq_koUTHl-192" value="" style="shape=tableRow;horizontal=0;startSize=0;swimlaneHead=0;swimlaneBody=0;fillColor=none;collapsible=0;dropTarget=0;points=[[0,0.5],[1,0.5]];portConstraint=eastwest;strokeColor=#6B6700;top=0;left=0;right=0;bottom=1;labelBackgroundColor=none;fontColor=#393C56;" parent="HmzSfwOKwj8Bq_koUTHl-185" vertex="1">
          <mxGeometry y="30" width="110" height="30" as="geometry" />
        </mxCell>
        <mxCell id="HmzSfwOKwj8Bq_koUTHl-193" value="PK" style="shape=partialRectangle;overflow=hidden;connectable=0;fillColor=none;strokeColor=#6B6700;top=0;left=0;bottom=0;right=0;fontStyle=1;labelBackgroundColor=none;fontColor=#393C56;" parent="HmzSfwOKwj8Bq_koUTHl-192" vertex="1">
          <mxGeometry width="30" height="30" as="geometry">
            <mxRectangle width="30" height="30" as="alternateBounds" />
          </mxGeometry>
        </mxCell>
        <mxCell id="HmzSfwOKwj8Bq_koUTHl-194" value="RecNo " style="shape=partialRectangle;overflow=hidden;connectable=0;fillColor=none;align=left;strokeColor=#6B6700;top=0;left=0;bottom=0;right=0;spacingLeft=6;fontStyle=5;labelBackgroundColor=none;fontColor=#393C56;" parent="HmzSfwOKwj8Bq_koUTHl-192" vertex="1">
          <mxGeometry x="30" width="80" height="30" as="geometry">
            <mxRectangle width="80" height="30" as="alternateBounds" />
          </mxGeometry>
        </mxCell>
        <mxCell id="HmzSfwOKwj8Bq_koUTHl-195" value="" style="shape=tableRow;horizontal=0;startSize=0;swimlaneHead=0;swimlaneBody=0;fillColor=none;collapsible=0;dropTarget=0;points=[[0,0.5],[1,0.5]];portConstraint=eastwest;strokeColor=#6B6700;top=0;left=0;right=0;bottom=0;labelBackgroundColor=none;fontColor=#393C56;" parent="HmzSfwOKwj8Bq_koUTHl-185" vertex="1">
          <mxGeometry y="60" width="110" height="30" as="geometry" />
        </mxCell>
        <mxCell id="HmzSfwOKwj8Bq_koUTHl-196" value="" style="shape=partialRectangle;overflow=hidden;connectable=0;fillColor=none;strokeColor=#6B6700;top=0;left=0;bottom=0;right=0;labelBackgroundColor=none;fontColor=#393C56;" parent="HmzSfwOKwj8Bq_koUTHl-195" vertex="1">
          <mxGeometry width="30" height="30" as="geometry">
            <mxRectangle width="30" height="30" as="alternateBounds" />
          </mxGeometry>
        </mxCell>
        <mxCell id="HmzSfwOKwj8Bq_koUTHl-197" value="PymtDate " style="shape=partialRectangle;overflow=hidden;connectable=0;fillColor=none;align=left;strokeColor=#6B6700;top=0;left=0;bottom=0;right=0;spacingLeft=6;labelBackgroundColor=none;fontColor=#393C56;" parent="HmzSfwOKwj8Bq_koUTHl-195" vertex="1">
          <mxGeometry x="30" width="80" height="30" as="geometry">
            <mxRectangle width="80" height="30" as="alternateBounds" />
          </mxGeometry>
        </mxCell>
        <mxCell id="HmzSfwOKwj8Bq_koUTHl-189" value="" style="shape=tableRow;horizontal=0;startSize=0;swimlaneHead=0;swimlaneBody=0;fillColor=none;collapsible=0;dropTarget=0;points=[[0,0.5],[1,0.5]];portConstraint=eastwest;strokeColor=#6B6700;top=0;left=0;right=0;bottom=1;labelBackgroundColor=none;fontColor=#393C56;" parent="HmzSfwOKwj8Bq_koUTHl-185" vertex="1">
          <mxGeometry y="90" width="110" height="30" as="geometry" />
        </mxCell>
        <mxCell id="HmzSfwOKwj8Bq_koUTHl-190" value="FK" style="shape=partialRectangle;overflow=hidden;connectable=0;fillColor=none;strokeColor=#6B6700;top=0;left=0;bottom=0;right=0;fontStyle=1;labelBackgroundColor=none;fontColor=#393C56;" parent="HmzSfwOKwj8Bq_koUTHl-189" vertex="1">
          <mxGeometry width="30" height="30" as="geometry">
            <mxRectangle width="30" height="30" as="alternateBounds" />
          </mxGeometry>
        </mxCell>
        <mxCell id="HmzSfwOKwj8Bq_koUTHl-191" value="InvNo" style="shape=partialRectangle;overflow=hidden;connectable=0;fillColor=none;align=left;strokeColor=#6B6700;top=0;left=0;bottom=0;right=0;spacingLeft=6;fontStyle=1;labelBackgroundColor=none;fontColor=#393C56;" parent="HmzSfwOKwj8Bq_koUTHl-189" vertex="1">
          <mxGeometry x="30" width="80" height="30" as="geometry">
            <mxRectangle width="80" height="30" as="alternateBounds" />
          </mxGeometry>
        </mxCell>
        <mxCell id="HmzSfwOKwj8Bq_koUTHl-186" value="" style="shape=tableRow;horizontal=0;startSize=0;swimlaneHead=0;swimlaneBody=0;fillColor=none;collapsible=0;dropTarget=0;points=[[0,0.5],[1,0.5]];portConstraint=eastwest;strokeColor=#6B6700;top=0;left=0;right=0;bottom=1;labelBackgroundColor=none;fontColor=#393C56;" parent="HmzSfwOKwj8Bq_koUTHl-185" vertex="1">
          <mxGeometry y="120" width="110" height="30" as="geometry" />
        </mxCell>
        <mxCell id="HmzSfwOKwj8Bq_koUTHl-187" value="FK" style="shape=partialRectangle;overflow=hidden;connectable=0;fillColor=none;strokeColor=#6B6700;top=0;left=0;bottom=0;right=0;fontStyle=1;labelBackgroundColor=none;fontColor=#393C56;" parent="HmzSfwOKwj8Bq_koUTHl-186" vertex="1">
          <mxGeometry width="30" height="30" as="geometry">
            <mxRectangle width="30" height="30" as="alternateBounds" />
          </mxGeometry>
        </mxCell>
        <mxCell id="HmzSfwOKwj8Bq_koUTHl-188" value="OrderNo" style="shape=partialRectangle;overflow=hidden;connectable=0;fillColor=none;align=left;strokeColor=#6B6700;top=0;left=0;bottom=0;right=0;spacingLeft=6;fontStyle=1;labelBackgroundColor=none;fontColor=#393C56;" parent="HmzSfwOKwj8Bq_koUTHl-186" vertex="1">
          <mxGeometry x="30" width="80" height="30" as="geometry">
            <mxRectangle width="80" height="30" as="alternateBounds" />
          </mxGeometry>
        </mxCell>
        <mxCell id="HmzSfwOKwj8Bq_koUTHl-198" value="" style="shape=tableRow;horizontal=0;startSize=0;swimlaneHead=0;swimlaneBody=0;fillColor=none;collapsible=0;dropTarget=0;points=[[0,0.5],[1,0.5]];portConstraint=eastwest;strokeColor=#6B6700;top=0;left=0;right=0;bottom=0;labelBackgroundColor=none;fontColor=#393C56;" parent="HmzSfwOKwj8Bq_koUTHl-185" vertex="1">
          <mxGeometry y="150" width="110" height="30" as="geometry" />
        </mxCell>
        <mxCell id="HmzSfwOKwj8Bq_koUTHl-199" value="" style="shape=partialRectangle;overflow=hidden;connectable=0;fillColor=none;strokeColor=#6B6700;top=0;left=0;bottom=0;right=0;labelBackgroundColor=none;fontColor=#393C56;" parent="HmzSfwOKwj8Bq_koUTHl-198" vertex="1">
          <mxGeometry width="30" height="30" as="geometry">
            <mxRectangle width="30" height="30" as="alternateBounds" />
          </mxGeometry>
        </mxCell>
        <mxCell id="HmzSfwOKwj8Bq_koUTHl-200" value="PaidAmt" style="shape=partialRectangle;overflow=hidden;connectable=0;fillColor=none;align=left;strokeColor=#6B6700;top=0;left=0;bottom=0;right=0;spacingLeft=6;labelBackgroundColor=none;fontColor=#393C56;" parent="HmzSfwOKwj8Bq_koUTHl-198" vertex="1">
          <mxGeometry x="30" width="80" height="30" as="geometry">
            <mxRectangle width="80" height="30" as="alternateBounds" />
          </mxGeometry>
        </mxCell>
        <mxCell id="HmzSfwOKwj8Bq_koUTHl-207" value="Accounting" style="shape=table;startSize=30;container=1;collapsible=1;childLayout=tableLayout;fixedRows=1;rowLines=0;fontStyle=1;align=center;resizeLast=1;labelBackgroundColor=none;fillColor=#F2CC8F;strokeColor=#E07A5F;fontColor=#393C56;" parent="1" vertex="1">
          <mxGeometry x="-1120" y="540" width="120" height="210" as="geometry" />
        </mxCell>
        <mxCell id="HmzSfwOKwj8Bq_koUTHl-214" value="" style="shape=tableRow;horizontal=0;startSize=0;swimlaneHead=0;swimlaneBody=0;fillColor=none;collapsible=0;dropTarget=0;points=[[0,0.5],[1,0.5]];portConstraint=eastwest;strokeColor=#E07A5F;top=0;left=0;right=0;bottom=0;labelBackgroundColor=none;fontColor=#393C56;" parent="HmzSfwOKwj8Bq_koUTHl-207" vertex="1">
          <mxGeometry y="30" width="120" height="30" as="geometry" />
        </mxCell>
        <mxCell id="HmzSfwOKwj8Bq_koUTHl-215" value="" style="shape=partialRectangle;overflow=hidden;connectable=0;fillColor=none;strokeColor=#E07A5F;top=0;left=0;bottom=0;right=0;labelBackgroundColor=none;fontColor=#393C56;" parent="HmzSfwOKwj8Bq_koUTHl-214" vertex="1">
          <mxGeometry width="30" height="30" as="geometry">
            <mxRectangle width="30" height="30" as="alternateBounds" />
          </mxGeometry>
        </mxCell>
        <mxCell id="HmzSfwOKwj8Bq_koUTHl-216" value="Date" style="shape=partialRectangle;overflow=hidden;connectable=0;fillColor=none;align=left;strokeColor=#E07A5F;top=0;left=0;bottom=0;right=0;spacingLeft=6;labelBackgroundColor=none;fontColor=#393C56;" parent="HmzSfwOKwj8Bq_koUTHl-214" vertex="1">
          <mxGeometry x="30" width="90" height="30" as="geometry">
            <mxRectangle width="90" height="30" as="alternateBounds" />
          </mxGeometry>
        </mxCell>
        <mxCell id="HmzSfwOKwj8Bq_koUTHl-217" value="" style="shape=tableRow;horizontal=0;startSize=0;swimlaneHead=0;swimlaneBody=0;fillColor=none;collapsible=0;dropTarget=0;points=[[0,0.5],[1,0.5]];portConstraint=eastwest;strokeColor=#E07A5F;top=0;left=0;right=0;bottom=0;labelBackgroundColor=none;fontColor=#393C56;" parent="HmzSfwOKwj8Bq_koUTHl-207" vertex="1">
          <mxGeometry y="60" width="120" height="30" as="geometry" />
        </mxCell>
        <mxCell id="HmzSfwOKwj8Bq_koUTHl-218" value="" style="shape=partialRectangle;overflow=hidden;connectable=0;fillColor=none;strokeColor=#E07A5F;top=0;left=0;bottom=0;right=0;labelBackgroundColor=none;fontColor=#393C56;" parent="HmzSfwOKwj8Bq_koUTHl-217" vertex="1">
          <mxGeometry width="30" height="30" as="geometry">
            <mxRectangle width="30" height="30" as="alternateBounds" />
          </mxGeometry>
        </mxCell>
        <mxCell id="HmzSfwOKwj8Bq_koUTHl-219" value="Amount" style="shape=partialRectangle;overflow=hidden;connectable=0;fillColor=none;align=left;strokeColor=#E07A5F;top=0;left=0;bottom=0;right=0;spacingLeft=6;labelBackgroundColor=none;fontColor=#393C56;" parent="HmzSfwOKwj8Bq_koUTHl-217" vertex="1">
          <mxGeometry x="30" width="90" height="30" as="geometry">
            <mxRectangle width="90" height="30" as="alternateBounds" />
          </mxGeometry>
        </mxCell>
        <mxCell id="HmzSfwOKwj8Bq_koUTHl-220" value="" style="shape=tableRow;horizontal=0;startSize=0;swimlaneHead=0;swimlaneBody=0;fillColor=none;collapsible=0;dropTarget=0;points=[[0,0.5],[1,0.5]];portConstraint=eastwest;strokeColor=#E07A5F;top=0;left=0;right=0;bottom=0;labelBackgroundColor=none;fontColor=#393C56;" parent="HmzSfwOKwj8Bq_koUTHl-207" vertex="1">
          <mxGeometry y="90" width="120" height="30" as="geometry" />
        </mxCell>
        <mxCell id="HmzSfwOKwj8Bq_koUTHl-221" value="" style="shape=partialRectangle;overflow=hidden;connectable=0;fillColor=none;strokeColor=#E07A5F;top=0;left=0;bottom=0;right=0;labelBackgroundColor=none;fontColor=#393C56;" parent="HmzSfwOKwj8Bq_koUTHl-220" vertex="1">
          <mxGeometry width="30" height="30" as="geometry">
            <mxRectangle width="30" height="30" as="alternateBounds" />
          </mxGeometry>
        </mxCell>
        <mxCell id="HmzSfwOKwj8Bq_koUTHl-222" value="CrdtDebt" style="shape=partialRectangle;overflow=hidden;connectable=0;fillColor=none;align=left;strokeColor=#E07A5F;top=0;left=0;bottom=0;right=0;spacingLeft=6;labelBackgroundColor=none;fontColor=#393C56;" parent="HmzSfwOKwj8Bq_koUTHl-220" vertex="1">
          <mxGeometry x="30" width="90" height="30" as="geometry">
            <mxRectangle width="90" height="30" as="alternateBounds" />
          </mxGeometry>
        </mxCell>
        <mxCell id="HmzSfwOKwj8Bq_koUTHl-211" value="" style="shape=tableRow;horizontal=0;startSize=0;swimlaneHead=0;swimlaneBody=0;fillColor=none;collapsible=0;dropTarget=0;points=[[0,0.5],[1,0.5]];portConstraint=eastwest;strokeColor=#E07A5F;top=0;left=0;right=0;bottom=1;labelBackgroundColor=none;fontColor=#393C56;" parent="HmzSfwOKwj8Bq_koUTHl-207" vertex="1">
          <mxGeometry y="120" width="120" height="30" as="geometry" />
        </mxCell>
        <mxCell id="HmzSfwOKwj8Bq_koUTHl-212" value="FK" style="shape=partialRectangle;overflow=hidden;connectable=0;fillColor=none;strokeColor=#E07A5F;top=0;left=0;bottom=0;right=0;fontStyle=1;labelBackgroundColor=none;fontColor=#393C56;" parent="HmzSfwOKwj8Bq_koUTHl-211" vertex="1">
          <mxGeometry width="30" height="30" as="geometry">
            <mxRectangle width="30" height="30" as="alternateBounds" />
          </mxGeometry>
        </mxCell>
        <mxCell id="HmzSfwOKwj8Bq_koUTHl-213" value="InvNo" style="shape=partialRectangle;overflow=hidden;connectable=0;fillColor=none;align=left;strokeColor=#E07A5F;top=0;left=0;bottom=0;right=0;spacingLeft=6;fontStyle=1;labelBackgroundColor=none;fontColor=#393C56;" parent="HmzSfwOKwj8Bq_koUTHl-211" vertex="1">
          <mxGeometry x="30" width="90" height="30" as="geometry">
            <mxRectangle width="90" height="30" as="alternateBounds" />
          </mxGeometry>
        </mxCell>
        <mxCell id="HmzSfwOKwj8Bq_koUTHl-208" value="" style="shape=tableRow;horizontal=0;startSize=0;swimlaneHead=0;swimlaneBody=0;fillColor=none;collapsible=0;dropTarget=0;points=[[0,0.5],[1,0.5]];portConstraint=eastwest;strokeColor=#E07A5F;top=0;left=0;right=0;bottom=1;labelBackgroundColor=none;fontColor=#393C56;" parent="HmzSfwOKwj8Bq_koUTHl-207" vertex="1">
          <mxGeometry y="150" width="120" height="30" as="geometry" />
        </mxCell>
        <mxCell id="HmzSfwOKwj8Bq_koUTHl-209" value="FK" style="shape=partialRectangle;overflow=hidden;connectable=0;fillColor=none;strokeColor=#E07A5F;top=0;left=0;bottom=0;right=0;fontStyle=1;labelBackgroundColor=none;fontColor=#393C56;" parent="HmzSfwOKwj8Bq_koUTHl-208" vertex="1">
          <mxGeometry width="30" height="30" as="geometry">
            <mxRectangle width="30" height="30" as="alternateBounds" />
          </mxGeometry>
        </mxCell>
        <mxCell id="HmzSfwOKwj8Bq_koUTHl-210" value="OrderNo" style="shape=partialRectangle;overflow=hidden;connectable=0;fillColor=none;align=left;strokeColor=#E07A5F;top=0;left=0;bottom=0;right=0;spacingLeft=6;fontStyle=1;labelBackgroundColor=none;fontColor=#393C56;" parent="HmzSfwOKwj8Bq_koUTHl-208" vertex="1">
          <mxGeometry x="30" width="90" height="30" as="geometry">
            <mxRectangle width="90" height="30" as="alternateBounds" />
          </mxGeometry>
        </mxCell>
        <mxCell id="HmzSfwOKwj8Bq_koUTHl-223" value="" style="shape=tableRow;horizontal=0;startSize=0;swimlaneHead=0;swimlaneBody=0;fillColor=none;collapsible=0;dropTarget=0;points=[[0,0.5],[1,0.5]];portConstraint=eastwest;strokeColor=#E07A5F;top=0;left=0;right=0;bottom=0;labelBackgroundColor=none;fontColor=#393C56;" parent="HmzSfwOKwj8Bq_koUTHl-207" vertex="1">
          <mxGeometry y="180" width="120" height="30" as="geometry" />
        </mxCell>
        <mxCell id="HmzSfwOKwj8Bq_koUTHl-224" value="FK" style="shape=partialRectangle;overflow=hidden;connectable=0;fillColor=none;strokeColor=#E07A5F;top=0;left=0;bottom=0;right=0;labelBackgroundColor=none;fontColor=#393C56;fontStyle=1" parent="HmzSfwOKwj8Bq_koUTHl-223" vertex="1">
          <mxGeometry width="30" height="30" as="geometry">
            <mxRectangle width="30" height="30" as="alternateBounds" />
          </mxGeometry>
        </mxCell>
        <mxCell id="HmzSfwOKwj8Bq_koUTHl-225" value="ReceiptNo" style="shape=partialRectangle;overflow=hidden;connectable=0;fillColor=none;align=left;strokeColor=#E07A5F;top=0;left=0;bottom=0;right=0;spacingLeft=6;labelBackgroundColor=none;fontColor=#393C56;fontStyle=1" parent="HmzSfwOKwj8Bq_koUTHl-223" vertex="1">
          <mxGeometry x="30" width="90" height="30" as="geometry">
            <mxRectangle width="90" height="30" as="alternateBounds" />
          </mxGeometry>
        </mxCell>
        <mxCell id="HmzSfwOKwj8Bq_koUTHl-235" value="StockOrder" style="shape=table;startSize=30;container=1;collapsible=1;childLayout=tableLayout;fixedRows=1;rowLines=0;fontStyle=1;align=center;resizeLast=1;labelBackgroundColor=none;fillColor=#F2CC8F;strokeColor=#E07A5F;fontColor=#393C56;" parent="1" vertex="1">
          <mxGeometry x="-1630" y="30" width="120" height="180" as="geometry" />
        </mxCell>
        <mxCell id="HmzSfwOKwj8Bq_koUTHl-239" value="" style="shape=tableRow;horizontal=0;startSize=0;swimlaneHead=0;swimlaneBody=0;fillColor=none;collapsible=0;dropTarget=0;points=[[0,0.5],[1,0.5]];portConstraint=eastwest;strokeColor=#E07A5F;top=0;left=0;right=0;bottom=1;labelBackgroundColor=none;fontColor=#393C56;" parent="HmzSfwOKwj8Bq_koUTHl-235" vertex="1">
          <mxGeometry y="30" width="120" height="30" as="geometry" />
        </mxCell>
        <mxCell id="HmzSfwOKwj8Bq_koUTHl-240" value="FK" style="shape=partialRectangle;overflow=hidden;connectable=0;fillColor=none;strokeColor=#E07A5F;top=0;left=0;bottom=0;right=0;fontStyle=1;labelBackgroundColor=none;fontColor=#393C56;" parent="HmzSfwOKwj8Bq_koUTHl-239" vertex="1">
          <mxGeometry width="30" height="30" as="geometry">
            <mxRectangle width="30" height="30" as="alternateBounds" />
          </mxGeometry>
        </mxCell>
        <mxCell id="HmzSfwOKwj8Bq_koUTHl-241" value="OrderNo" style="shape=partialRectangle;overflow=hidden;connectable=0;fillColor=none;align=left;strokeColor=#E07A5F;top=0;left=0;bottom=0;right=0;spacingLeft=6;fontStyle=1;labelBackgroundColor=none;fontColor=#393C56;" parent="HmzSfwOKwj8Bq_koUTHl-239" vertex="1">
          <mxGeometry x="30" width="90" height="30" as="geometry">
            <mxRectangle width="90" height="30" as="alternateBounds" />
          </mxGeometry>
        </mxCell>
        <mxCell id="HmzSfwOKwj8Bq_koUTHl-242" value="" style="shape=tableRow;horizontal=0;startSize=0;swimlaneHead=0;swimlaneBody=0;fillColor=none;collapsible=0;dropTarget=0;points=[[0,0.5],[1,0.5]];portConstraint=eastwest;strokeColor=#E07A5F;top=0;left=0;right=0;bottom=0;labelBackgroundColor=none;fontColor=#393C56;" parent="HmzSfwOKwj8Bq_koUTHl-235" vertex="1">
          <mxGeometry y="60" width="120" height="30" as="geometry" />
        </mxCell>
        <mxCell id="HmzSfwOKwj8Bq_koUTHl-243" value="" style="shape=partialRectangle;overflow=hidden;connectable=0;fillColor=none;strokeColor=#E07A5F;top=0;left=0;bottom=0;right=0;labelBackgroundColor=none;fontColor=#393C56;" parent="HmzSfwOKwj8Bq_koUTHl-242" vertex="1">
          <mxGeometry width="30" height="30" as="geometry">
            <mxRectangle width="30" height="30" as="alternateBounds" />
          </mxGeometry>
        </mxCell>
        <mxCell id="HmzSfwOKwj8Bq_koUTHl-244" value="StockDate " style="shape=partialRectangle;overflow=hidden;connectable=0;fillColor=none;align=left;strokeColor=#E07A5F;top=0;left=0;bottom=0;right=0;spacingLeft=6;labelBackgroundColor=none;fontColor=#393C56;" parent="HmzSfwOKwj8Bq_koUTHl-242" vertex="1">
          <mxGeometry x="30" width="90" height="30" as="geometry">
            <mxRectangle width="90" height="30" as="alternateBounds" />
          </mxGeometry>
        </mxCell>
        <mxCell id="HmzSfwOKwj8Bq_koUTHl-236" value="" style="shape=tableRow;horizontal=0;startSize=0;swimlaneHead=0;swimlaneBody=0;fillColor=none;collapsible=0;dropTarget=0;points=[[0,0.5],[1,0.5]];portConstraint=eastwest;strokeColor=#E07A5F;top=0;left=0;right=0;bottom=1;labelBackgroundColor=none;fontColor=#393C56;" parent="HmzSfwOKwj8Bq_koUTHl-235" vertex="1">
          <mxGeometry y="90" width="120" height="30" as="geometry" />
        </mxCell>
        <mxCell id="HmzSfwOKwj8Bq_koUTHl-237" value="FK" style="shape=partialRectangle;overflow=hidden;connectable=0;fillColor=none;strokeColor=#E07A5F;top=0;left=0;bottom=0;right=0;fontStyle=1;labelBackgroundColor=none;fontColor=#393C56;" parent="HmzSfwOKwj8Bq_koUTHl-236" vertex="1">
          <mxGeometry width="30" height="30" as="geometry">
            <mxRectangle width="30" height="30" as="alternateBounds" />
          </mxGeometry>
        </mxCell>
        <mxCell id="HmzSfwOKwj8Bq_koUTHl-238" value="Code" style="shape=partialRectangle;overflow=hidden;connectable=0;fillColor=none;align=left;strokeColor=#E07A5F;top=0;left=0;bottom=0;right=0;spacingLeft=6;fontStyle=1;labelBackgroundColor=none;fontColor=#393C56;" parent="HmzSfwOKwj8Bq_koUTHl-236" vertex="1">
          <mxGeometry x="30" width="90" height="30" as="geometry">
            <mxRectangle width="90" height="30" as="alternateBounds" />
          </mxGeometry>
        </mxCell>
        <mxCell id="HmzSfwOKwj8Bq_koUTHl-245" value="" style="shape=tableRow;horizontal=0;startSize=0;swimlaneHead=0;swimlaneBody=0;fillColor=none;collapsible=0;dropTarget=0;points=[[0,0.5],[1,0.5]];portConstraint=eastwest;strokeColor=#E07A5F;top=0;left=0;right=0;bottom=0;labelBackgroundColor=none;fontColor=#393C56;" parent="HmzSfwOKwj8Bq_koUTHl-235" vertex="1">
          <mxGeometry y="120" width="120" height="30" as="geometry" />
        </mxCell>
        <mxCell id="HmzSfwOKwj8Bq_koUTHl-246" value="" style="shape=partialRectangle;overflow=hidden;connectable=0;fillColor=none;strokeColor=#E07A5F;top=0;left=0;bottom=0;right=0;labelBackgroundColor=none;fontColor=#393C56;" parent="HmzSfwOKwj8Bq_koUTHl-245" vertex="1">
          <mxGeometry width="30" height="30" as="geometry">
            <mxRectangle width="30" height="30" as="alternateBounds" />
          </mxGeometry>
        </mxCell>
        <mxCell id="HmzSfwOKwj8Bq_koUTHl-247" value="Descr " style="shape=partialRectangle;overflow=hidden;connectable=0;fillColor=none;align=left;strokeColor=#E07A5F;top=0;left=0;bottom=0;right=0;spacingLeft=6;labelBackgroundColor=none;fontColor=#393C56;" parent="HmzSfwOKwj8Bq_koUTHl-245" vertex="1">
          <mxGeometry x="30" width="90" height="30" as="geometry">
            <mxRectangle width="90" height="30" as="alternateBounds" />
          </mxGeometry>
        </mxCell>
        <mxCell id="HmzSfwOKwj8Bq_koUTHl-248" value="" style="shape=tableRow;horizontal=0;startSize=0;swimlaneHead=0;swimlaneBody=0;fillColor=none;collapsible=0;dropTarget=0;points=[[0,0.5],[1,0.5]];portConstraint=eastwest;strokeColor=#E07A5F;top=0;left=0;right=0;bottom=0;labelBackgroundColor=none;fontColor=#393C56;" parent="HmzSfwOKwj8Bq_koUTHl-235" vertex="1">
          <mxGeometry y="150" width="120" height="30" as="geometry" />
        </mxCell>
        <mxCell id="HmzSfwOKwj8Bq_koUTHl-249" value="" style="shape=partialRectangle;overflow=hidden;connectable=0;fillColor=none;strokeColor=#E07A5F;top=0;left=0;bottom=0;right=0;labelBackgroundColor=none;fontColor=#393C56;" parent="HmzSfwOKwj8Bq_koUTHl-248" vertex="1">
          <mxGeometry width="30" height="30" as="geometry">
            <mxRectangle width="30" height="30" as="alternateBounds" />
          </mxGeometry>
        </mxCell>
        <mxCell id="HmzSfwOKwj8Bq_koUTHl-250" value="Quant" style="shape=partialRectangle;overflow=hidden;connectable=0;fillColor=none;align=left;strokeColor=#E07A5F;top=0;left=0;bottom=0;right=0;spacingLeft=6;labelBackgroundColor=none;fontColor=#393C56;" parent="HmzSfwOKwj8Bq_koUTHl-248" vertex="1">
          <mxGeometry x="30" width="90" height="30" as="geometry">
            <mxRectangle width="90" height="30" as="alternateBounds" />
          </mxGeometry>
        </mxCell>
        <mxCell id="HmzSfwOKwj8Bq_koUTHl-257" value="DeliveryFees" style="shape=table;startSize=30;container=1;collapsible=1;childLayout=tableLayout;fixedRows=1;rowLines=0;fontStyle=1;align=center;resizeLast=1;labelBackgroundColor=none;fillColor=#F2CC8F;strokeColor=#E07A5F;fontColor=#393C56;" parent="1" vertex="1">
          <mxGeometry x="-1120" y="790" width="110" height="120" as="geometry" />
        </mxCell>
        <mxCell id="HmzSfwOKwj8Bq_koUTHl-258" value="" style="shape=tableRow;horizontal=0;startSize=0;swimlaneHead=0;swimlaneBody=0;fillColor=none;collapsible=0;dropTarget=0;points=[[0,0.5],[1,0.5]];portConstraint=eastwest;strokeColor=#E07A5F;top=0;left=0;right=0;bottom=0;labelBackgroundColor=none;fontColor=#393C56;" parent="HmzSfwOKwj8Bq_koUTHl-257" vertex="1">
          <mxGeometry y="30" width="110" height="30" as="geometry" />
        </mxCell>
        <mxCell id="HmzSfwOKwj8Bq_koUTHl-259" value="" style="shape=partialRectangle;overflow=hidden;connectable=0;fillColor=none;strokeColor=#E07A5F;top=0;left=0;bottom=0;right=0;labelBackgroundColor=none;fontColor=#393C56;" parent="HmzSfwOKwj8Bq_koUTHl-258" vertex="1">
          <mxGeometry width="30" height="30" as="geometry">
            <mxRectangle width="30" height="30" as="alternateBounds" />
          </mxGeometry>
        </mxCell>
        <mxCell id="HmzSfwOKwj8Bq_koUTHl-260" value="Delivery" style="shape=partialRectangle;overflow=hidden;connectable=0;fillColor=none;align=left;strokeColor=#E07A5F;top=0;left=0;bottom=0;right=0;spacingLeft=6;labelBackgroundColor=none;fontColor=#393C56;" parent="HmzSfwOKwj8Bq_koUTHl-258" vertex="1">
          <mxGeometry x="30" width="80" height="30" as="geometry">
            <mxRectangle width="80" height="30" as="alternateBounds" />
          </mxGeometry>
        </mxCell>
        <mxCell id="HmzSfwOKwj8Bq_koUTHl-261" value="" style="shape=tableRow;horizontal=0;startSize=0;swimlaneHead=0;swimlaneBody=0;fillColor=none;collapsible=0;dropTarget=0;points=[[0,0.5],[1,0.5]];portConstraint=eastwest;strokeColor=#E07A5F;top=0;left=0;right=0;bottom=0;labelBackgroundColor=none;fontColor=#393C56;" parent="HmzSfwOKwj8Bq_koUTHl-257" vertex="1">
          <mxGeometry y="60" width="110" height="30" as="geometry" />
        </mxCell>
        <mxCell id="HmzSfwOKwj8Bq_koUTHl-262" value="" style="shape=partialRectangle;overflow=hidden;connectable=0;fillColor=none;strokeColor=#E07A5F;top=0;left=0;bottom=0;right=0;labelBackgroundColor=none;fontColor=#393C56;" parent="HmzSfwOKwj8Bq_koUTHl-261" vertex="1">
          <mxGeometry width="30" height="30" as="geometry">
            <mxRectangle width="30" height="30" as="alternateBounds" />
          </mxGeometry>
        </mxCell>
        <mxCell id="HmzSfwOKwj8Bq_koUTHl-263" value="Desc" style="shape=partialRectangle;overflow=hidden;connectable=0;fillColor=none;align=left;strokeColor=#E07A5F;top=0;left=0;bottom=0;right=0;spacingLeft=6;labelBackgroundColor=none;fontColor=#393C56;" parent="HmzSfwOKwj8Bq_koUTHl-261" vertex="1">
          <mxGeometry x="30" width="80" height="30" as="geometry">
            <mxRectangle width="80" height="30" as="alternateBounds" />
          </mxGeometry>
        </mxCell>
        <mxCell id="HmzSfwOKwj8Bq_koUTHl-264" value="" style="shape=tableRow;horizontal=0;startSize=0;swimlaneHead=0;swimlaneBody=0;fillColor=none;collapsible=0;dropTarget=0;points=[[0,0.5],[1,0.5]];portConstraint=eastwest;strokeColor=#E07A5F;top=0;left=0;right=0;bottom=0;labelBackgroundColor=none;fontColor=#393C56;" parent="HmzSfwOKwj8Bq_koUTHl-257" vertex="1">
          <mxGeometry y="90" width="110" height="30" as="geometry" />
        </mxCell>
        <mxCell id="HmzSfwOKwj8Bq_koUTHl-265" value="" style="shape=partialRectangle;overflow=hidden;connectable=0;fillColor=none;strokeColor=#E07A5F;top=0;left=0;bottom=0;right=0;labelBackgroundColor=none;fontColor=#393C56;" parent="HmzSfwOKwj8Bq_koUTHl-264" vertex="1">
          <mxGeometry width="30" height="30" as="geometry">
            <mxRectangle width="30" height="30" as="alternateBounds" />
          </mxGeometry>
        </mxCell>
        <mxCell id="HmzSfwOKwj8Bq_koUTHl-266" value="DelFee" style="shape=partialRectangle;overflow=hidden;connectable=0;fillColor=none;align=left;strokeColor=#E07A5F;top=0;left=0;bottom=0;right=0;spacingLeft=6;labelBackgroundColor=none;fontColor=#393C56;" parent="HmzSfwOKwj8Bq_koUTHl-264" vertex="1">
          <mxGeometry x="30" width="80" height="30" as="geometry">
            <mxRectangle width="80" height="30" as="alternateBounds" />
          </mxGeometry>
        </mxCell>
        <mxCell id="HmzSfwOKwj8Bq_koUTHl-267" value="Discounts" style="shape=table;startSize=30;container=1;collapsible=1;childLayout=tableLayout;fixedRows=1;rowLines=0;fontStyle=1;align=center;resizeLast=1;labelBackgroundColor=none;fillColor=#F2CC8F;strokeColor=#E07A5F;fontColor=#393C56;" parent="1" vertex="1">
          <mxGeometry x="-990" y="790" width="120" height="90" as="geometry" />
        </mxCell>
        <mxCell id="HmzSfwOKwj8Bq_koUTHl-268" value="" style="shape=tableRow;horizontal=0;startSize=0;swimlaneHead=0;swimlaneBody=0;fillColor=none;collapsible=0;dropTarget=0;points=[[0,0.5],[1,0.5]];portConstraint=eastwest;strokeColor=#E07A5F;top=0;left=0;right=0;bottom=0;labelBackgroundColor=none;fontColor=#393C56;" parent="HmzSfwOKwj8Bq_koUTHl-267" vertex="1">
          <mxGeometry y="30" width="120" height="30" as="geometry" />
        </mxCell>
        <mxCell id="HmzSfwOKwj8Bq_koUTHl-269" value="" style="shape=partialRectangle;overflow=hidden;connectable=0;fillColor=none;strokeColor=#E07A5F;top=0;left=0;bottom=0;right=0;labelBackgroundColor=none;fontColor=#393C56;" parent="HmzSfwOKwj8Bq_koUTHl-268" vertex="1">
          <mxGeometry width="30" height="30" as="geometry">
            <mxRectangle width="30" height="30" as="alternateBounds" />
          </mxGeometry>
        </mxCell>
        <mxCell id="HmzSfwOKwj8Bq_koUTHl-270" value="CustType " style="shape=partialRectangle;overflow=hidden;connectable=0;fillColor=none;align=left;strokeColor=#E07A5F;top=0;left=0;bottom=0;right=0;spacingLeft=6;labelBackgroundColor=none;fontColor=#393C56;" parent="HmzSfwOKwj8Bq_koUTHl-268" vertex="1">
          <mxGeometry x="30" width="90" height="30" as="geometry">
            <mxRectangle width="90" height="30" as="alternateBounds" />
          </mxGeometry>
        </mxCell>
        <mxCell id="HmzSfwOKwj8Bq_koUTHl-271" value="" style="shape=tableRow;horizontal=0;startSize=0;swimlaneHead=0;swimlaneBody=0;fillColor=none;collapsible=0;dropTarget=0;points=[[0,0.5],[1,0.5]];portConstraint=eastwest;strokeColor=#E07A5F;top=0;left=0;right=0;bottom=0;labelBackgroundColor=none;fontColor=#393C56;" parent="HmzSfwOKwj8Bq_koUTHl-267" vertex="1">
          <mxGeometry y="60" width="120" height="30" as="geometry" />
        </mxCell>
        <mxCell id="HmzSfwOKwj8Bq_koUTHl-272" value="" style="shape=partialRectangle;overflow=hidden;connectable=0;fillColor=none;strokeColor=#E07A5F;top=0;left=0;bottom=0;right=0;labelBackgroundColor=none;fontColor=#393C56;" parent="HmzSfwOKwj8Bq_koUTHl-271" vertex="1">
          <mxGeometry width="30" height="30" as="geometry">
            <mxRectangle width="30" height="30" as="alternateBounds" />
          </mxGeometry>
        </mxCell>
        <mxCell id="HmzSfwOKwj8Bq_koUTHl-273" value="Discnt" style="shape=partialRectangle;overflow=hidden;connectable=0;fillColor=none;align=left;strokeColor=#E07A5F;top=0;left=0;bottom=0;right=0;spacingLeft=6;labelBackgroundColor=none;fontColor=#393C56;" parent="HmzSfwOKwj8Bq_koUTHl-271" vertex="1">
          <mxGeometry x="30" width="90" height="30" as="geometry">
            <mxRectangle width="90" height="30" as="alternateBounds" />
          </mxGeometry>
        </mxCell>
        <mxCell id="HmzSfwOKwj8Bq_koUTHl-274" value="Numbers" style="shape=table;startSize=30;container=1;collapsible=1;childLayout=tableLayout;fixedRows=1;rowLines=0;fontStyle=1;align=center;resizeLast=1;labelBackgroundColor=none;fillColor=#F2CC8F;strokeColor=#E07A5F;fontColor=#393C56;" parent="1" vertex="1">
          <mxGeometry x="-1580" y="730" width="120" height="180" as="geometry" />
        </mxCell>
        <mxCell id="HmzSfwOKwj8Bq_koUTHl-275" value="" style="shape=tableRow;horizontal=0;startSize=0;swimlaneHead=0;swimlaneBody=0;fillColor=none;collapsible=0;dropTarget=0;points=[[0,0.5],[1,0.5]];portConstraint=eastwest;strokeColor=#E07A5F;top=0;left=0;right=0;bottom=0;labelBackgroundColor=none;fontColor=#393C56;" parent="HmzSfwOKwj8Bq_koUTHl-274" vertex="1">
          <mxGeometry y="30" width="120" height="30" as="geometry" />
        </mxCell>
        <mxCell id="HmzSfwOKwj8Bq_koUTHl-276" value="" style="shape=partialRectangle;overflow=hidden;connectable=0;fillColor=none;strokeColor=#E07A5F;top=0;left=0;bottom=0;right=0;labelBackgroundColor=none;fontColor=#393C56;" parent="HmzSfwOKwj8Bq_koUTHl-275" vertex="1">
          <mxGeometry width="30" height="30" as="geometry">
            <mxRectangle width="30" height="30" as="alternateBounds" />
          </mxGeometry>
        </mxCell>
        <mxCell id="HmzSfwOKwj8Bq_koUTHl-277" value="LastOrder" style="shape=partialRectangle;overflow=hidden;connectable=0;fillColor=none;align=left;strokeColor=#E07A5F;top=0;left=0;bottom=0;right=0;spacingLeft=6;labelBackgroundColor=none;fontColor=#393C56;" parent="HmzSfwOKwj8Bq_koUTHl-275" vertex="1">
          <mxGeometry x="30" width="90" height="30" as="geometry">
            <mxRectangle width="90" height="30" as="alternateBounds" />
          </mxGeometry>
        </mxCell>
        <mxCell id="HmzSfwOKwj8Bq_koUTHl-278" value="" style="shape=tableRow;horizontal=0;startSize=0;swimlaneHead=0;swimlaneBody=0;fillColor=none;collapsible=0;dropTarget=0;points=[[0,0.5],[1,0.5]];portConstraint=eastwest;strokeColor=#E07A5F;top=0;left=0;right=0;bottom=0;labelBackgroundColor=none;fontColor=#393C56;" parent="HmzSfwOKwj8Bq_koUTHl-274" vertex="1">
          <mxGeometry y="60" width="120" height="30" as="geometry" />
        </mxCell>
        <mxCell id="HmzSfwOKwj8Bq_koUTHl-279" value="" style="shape=partialRectangle;overflow=hidden;connectable=0;fillColor=none;strokeColor=#E07A5F;top=0;left=0;bottom=0;right=0;labelBackgroundColor=none;fontColor=#393C56;" parent="HmzSfwOKwj8Bq_koUTHl-278" vertex="1">
          <mxGeometry width="30" height="30" as="geometry">
            <mxRectangle width="30" height="30" as="alternateBounds" />
          </mxGeometry>
        </mxCell>
        <mxCell id="HmzSfwOKwj8Bq_koUTHl-280" value="LastSubsc" style="shape=partialRectangle;overflow=hidden;connectable=0;fillColor=none;align=left;strokeColor=#E07A5F;top=0;left=0;bottom=0;right=0;spacingLeft=6;labelBackgroundColor=none;fontColor=#393C56;" parent="HmzSfwOKwj8Bq_koUTHl-278" vertex="1">
          <mxGeometry x="30" width="90" height="30" as="geometry">
            <mxRectangle width="90" height="30" as="alternateBounds" />
          </mxGeometry>
        </mxCell>
        <mxCell id="HmzSfwOKwj8Bq_koUTHl-281" value="" style="shape=tableRow;horizontal=0;startSize=0;swimlaneHead=0;swimlaneBody=0;fillColor=none;collapsible=0;dropTarget=0;points=[[0,0.5],[1,0.5]];portConstraint=eastwest;strokeColor=#E07A5F;top=0;left=0;right=0;bottom=0;labelBackgroundColor=none;fontColor=#393C56;" parent="HmzSfwOKwj8Bq_koUTHl-274" vertex="1">
          <mxGeometry y="90" width="120" height="30" as="geometry" />
        </mxCell>
        <mxCell id="HmzSfwOKwj8Bq_koUTHl-282" value="" style="shape=partialRectangle;overflow=hidden;connectable=0;fillColor=none;strokeColor=#E07A5F;top=0;left=0;bottom=0;right=0;labelBackgroundColor=none;fontColor=#393C56;" parent="HmzSfwOKwj8Bq_koUTHl-281" vertex="1">
          <mxGeometry width="30" height="30" as="geometry">
            <mxRectangle width="30" height="30" as="alternateBounds" />
          </mxGeometry>
        </mxCell>
        <mxCell id="HmzSfwOKwj8Bq_koUTHl-283" value="LastStock" style="shape=partialRectangle;overflow=hidden;connectable=0;fillColor=none;align=left;strokeColor=#E07A5F;top=0;left=0;bottom=0;right=0;spacingLeft=6;labelBackgroundColor=none;fontColor=#393C56;" parent="HmzSfwOKwj8Bq_koUTHl-281" vertex="1">
          <mxGeometry x="30" width="90" height="30" as="geometry">
            <mxRectangle width="90" height="30" as="alternateBounds" />
          </mxGeometry>
        </mxCell>
        <mxCell id="HmzSfwOKwj8Bq_koUTHl-284" value="" style="shape=tableRow;horizontal=0;startSize=0;swimlaneHead=0;swimlaneBody=0;fillColor=none;collapsible=0;dropTarget=0;points=[[0,0.5],[1,0.5]];portConstraint=eastwest;strokeColor=#E07A5F;top=0;left=0;right=0;bottom=0;labelBackgroundColor=none;fontColor=#393C56;" parent="HmzSfwOKwj8Bq_koUTHl-274" vertex="1">
          <mxGeometry y="120" width="120" height="30" as="geometry" />
        </mxCell>
        <mxCell id="HmzSfwOKwj8Bq_koUTHl-285" value="" style="shape=partialRectangle;overflow=hidden;connectable=0;fillColor=none;strokeColor=#E07A5F;top=0;left=0;bottom=0;right=0;labelBackgroundColor=none;fontColor=#393C56;" parent="HmzSfwOKwj8Bq_koUTHl-284" vertex="1">
          <mxGeometry width="30" height="30" as="geometry">
            <mxRectangle width="30" height="30" as="alternateBounds" />
          </mxGeometry>
        </mxCell>
        <mxCell id="HmzSfwOKwj8Bq_koUTHl-286" value="LastReceipt" style="shape=partialRectangle;overflow=hidden;connectable=0;fillColor=none;align=left;strokeColor=#E07A5F;top=0;left=0;bottom=0;right=0;spacingLeft=6;labelBackgroundColor=none;fontColor=#393C56;" parent="HmzSfwOKwj8Bq_koUTHl-284" vertex="1">
          <mxGeometry x="30" width="90" height="30" as="geometry">
            <mxRectangle width="90" height="30" as="alternateBounds" />
          </mxGeometry>
        </mxCell>
        <mxCell id="HmzSfwOKwj8Bq_koUTHl-287" value="" style="shape=tableRow;horizontal=0;startSize=0;swimlaneHead=0;swimlaneBody=0;fillColor=none;collapsible=0;dropTarget=0;points=[[0,0.5],[1,0.5]];portConstraint=eastwest;strokeColor=#E07A5F;top=0;left=0;right=0;bottom=0;labelBackgroundColor=none;fontColor=#393C56;" parent="HmzSfwOKwj8Bq_koUTHl-274" vertex="1">
          <mxGeometry y="150" width="120" height="30" as="geometry" />
        </mxCell>
        <mxCell id="HmzSfwOKwj8Bq_koUTHl-288" value="" style="shape=partialRectangle;overflow=hidden;connectable=0;fillColor=none;strokeColor=#E07A5F;top=0;left=0;bottom=0;right=0;labelBackgroundColor=none;fontColor=#393C56;" parent="HmzSfwOKwj8Bq_koUTHl-287" vertex="1">
          <mxGeometry width="30" height="30" as="geometry">
            <mxRectangle width="30" height="30" as="alternateBounds" />
          </mxGeometry>
        </mxCell>
        <mxCell id="HmzSfwOKwj8Bq_koUTHl-289" value="LastInvoice" style="shape=partialRectangle;overflow=hidden;connectable=0;fillColor=none;align=left;strokeColor=#E07A5F;top=0;left=0;bottom=0;right=0;spacingLeft=6;labelBackgroundColor=none;fontColor=#393C56;" parent="HmzSfwOKwj8Bq_koUTHl-287" vertex="1">
          <mxGeometry x="30" width="90" height="30" as="geometry">
            <mxRectangle width="90" height="30" as="alternateBounds" />
          </mxGeometry>
        </mxCell>
        <mxCell id="HmzSfwOKwj8Bq_koUTHl-290" value="Profiles" style="shape=table;startSize=30;container=1;collapsible=1;childLayout=tableLayout;fixedRows=1;rowLines=0;fontStyle=1;align=center;resizeLast=1;labelBackgroundColor=none;fillColor=#F2CC8F;strokeColor=#E07A5F;fontColor=#393C56;" parent="1" vertex="1">
          <mxGeometry x="-1260" y="715" width="100" height="90" as="geometry" />
        </mxCell>
        <mxCell id="HmzSfwOKwj8Bq_koUTHl-291" value="" style="shape=tableRow;horizontal=0;startSize=0;swimlaneHead=0;swimlaneBody=0;fillColor=none;collapsible=0;dropTarget=0;points=[[0,0.5],[1,0.5]];portConstraint=eastwest;strokeColor=#E07A5F;top=0;left=0;right=0;bottom=1;labelBackgroundColor=none;fontColor=#393C56;" parent="HmzSfwOKwj8Bq_koUTHl-290" vertex="1">
          <mxGeometry y="30" width="100" height="30" as="geometry" />
        </mxCell>
        <mxCell id="HmzSfwOKwj8Bq_koUTHl-292" value="PK" style="shape=partialRectangle;overflow=hidden;connectable=0;fillColor=none;strokeColor=#E07A5F;top=0;left=0;bottom=0;right=0;fontStyle=1;labelBackgroundColor=none;fontColor=#393C56;" parent="HmzSfwOKwj8Bq_koUTHl-291" vertex="1">
          <mxGeometry width="30" height="30" as="geometry">
            <mxRectangle width="30" height="30" as="alternateBounds" />
          </mxGeometry>
        </mxCell>
        <mxCell id="HmzSfwOKwj8Bq_koUTHl-293" value="Profile" style="shape=partialRectangle;overflow=hidden;connectable=0;fillColor=none;align=left;strokeColor=#E07A5F;top=0;left=0;bottom=0;right=0;spacingLeft=6;fontStyle=5;labelBackgroundColor=none;fontColor=#393C56;" parent="HmzSfwOKwj8Bq_koUTHl-291" vertex="1">
          <mxGeometry x="30" width="70" height="30" as="geometry">
            <mxRectangle width="70" height="30" as="alternateBounds" />
          </mxGeometry>
        </mxCell>
        <mxCell id="HmzSfwOKwj8Bq_koUTHl-294" value="" style="shape=tableRow;horizontal=0;startSize=0;swimlaneHead=0;swimlaneBody=0;fillColor=none;collapsible=0;dropTarget=0;points=[[0,0.5],[1,0.5]];portConstraint=eastwest;strokeColor=#E07A5F;top=0;left=0;right=0;bottom=0;labelBackgroundColor=none;fontColor=#393C56;" parent="HmzSfwOKwj8Bq_koUTHl-290" vertex="1">
          <mxGeometry y="60" width="100" height="30" as="geometry" />
        </mxCell>
        <mxCell id="HmzSfwOKwj8Bq_koUTHl-295" value="" style="shape=partialRectangle;overflow=hidden;connectable=0;fillColor=none;strokeColor=#E07A5F;top=0;left=0;bottom=0;right=0;labelBackgroundColor=none;fontColor=#393C56;" parent="HmzSfwOKwj8Bq_koUTHl-294" vertex="1">
          <mxGeometry width="30" height="30" as="geometry">
            <mxRectangle width="30" height="30" as="alternateBounds" />
          </mxGeometry>
        </mxCell>
        <mxCell id="HmzSfwOKwj8Bq_koUTHl-296" value="Act " style="shape=partialRectangle;overflow=hidden;connectable=0;fillColor=none;align=left;strokeColor=#E07A5F;top=0;left=0;bottom=0;right=0;spacingLeft=6;labelBackgroundColor=none;fontColor=#393C56;" parent="HmzSfwOKwj8Bq_koUTHl-294" vertex="1">
          <mxGeometry x="30" width="70" height="30" as="geometry">
            <mxRectangle width="70" height="30" as="alternateBounds" />
          </mxGeometry>
        </mxCell>
        <mxCell id="HmzSfwOKwj8Bq_koUTHl-297" value="Users" style="shape=table;startSize=30;container=1;collapsible=1;childLayout=tableLayout;fixedRows=1;rowLines=0;fontStyle=1;align=center;resizeLast=1;labelBackgroundColor=none;fillColor=#F2CC8F;strokeColor=#E07A5F;fontColor=#393C56;" parent="1" vertex="1">
          <mxGeometry x="-1280" y="835" width="120" height="90" as="geometry" />
        </mxCell>
        <mxCell id="HmzSfwOKwj8Bq_koUTHl-301" value="" style="shape=tableRow;horizontal=0;startSize=0;swimlaneHead=0;swimlaneBody=0;fillColor=none;collapsible=0;dropTarget=0;points=[[0,0.5],[1,0.5]];portConstraint=eastwest;strokeColor=#E07A5F;top=0;left=0;right=0;bottom=0;labelBackgroundColor=none;fontColor=#393C56;" parent="HmzSfwOKwj8Bq_koUTHl-297" vertex="1">
          <mxGeometry y="30" width="120" height="30" as="geometry" />
        </mxCell>
        <mxCell id="HmzSfwOKwj8Bq_koUTHl-302" value="" style="shape=partialRectangle;overflow=hidden;connectable=0;fillColor=none;strokeColor=#E07A5F;top=0;left=0;bottom=0;right=0;labelBackgroundColor=none;fontColor=#393C56;" parent="HmzSfwOKwj8Bq_koUTHl-301" vertex="1">
          <mxGeometry width="30" height="30" as="geometry">
            <mxRectangle width="30" height="30" as="alternateBounds" />
          </mxGeometry>
        </mxCell>
        <mxCell id="HmzSfwOKwj8Bq_koUTHl-303" value="UserName " style="shape=partialRectangle;overflow=hidden;connectable=0;fillColor=none;align=left;strokeColor=#E07A5F;top=0;left=0;bottom=0;right=0;spacingLeft=6;labelBackgroundColor=none;fontColor=#393C56;" parent="HmzSfwOKwj8Bq_koUTHl-301" vertex="1">
          <mxGeometry x="30" width="90" height="30" as="geometry">
            <mxRectangle width="90" height="30" as="alternateBounds" />
          </mxGeometry>
        </mxCell>
        <mxCell id="HmzSfwOKwj8Bq_koUTHl-298" value="" style="shape=tableRow;horizontal=0;startSize=0;swimlaneHead=0;swimlaneBody=0;fillColor=none;collapsible=0;dropTarget=0;points=[[0,0.5],[1,0.5]];portConstraint=eastwest;strokeColor=#E07A5F;top=0;left=0;right=0;bottom=1;labelBackgroundColor=none;fontColor=#393C56;" parent="HmzSfwOKwj8Bq_koUTHl-297" vertex="1">
          <mxGeometry y="60" width="120" height="30" as="geometry" />
        </mxCell>
        <mxCell id="HmzSfwOKwj8Bq_koUTHl-299" value="Fk" style="shape=partialRectangle;overflow=hidden;connectable=0;fillColor=none;strokeColor=#E07A5F;top=0;left=0;bottom=0;right=0;fontStyle=1;labelBackgroundColor=none;fontColor=#393C56;" parent="HmzSfwOKwj8Bq_koUTHl-298" vertex="1">
          <mxGeometry width="30" height="30" as="geometry">
            <mxRectangle width="30" height="30" as="alternateBounds" />
          </mxGeometry>
        </mxCell>
        <mxCell id="HmzSfwOKwj8Bq_koUTHl-300" value="Profile" style="shape=partialRectangle;overflow=hidden;connectable=0;fillColor=none;align=left;strokeColor=#E07A5F;top=0;left=0;bottom=0;right=0;spacingLeft=6;fontStyle=1;labelBackgroundColor=none;fontColor=#393C56;" parent="HmzSfwOKwj8Bq_koUTHl-298" vertex="1">
          <mxGeometry x="30" width="90" height="30" as="geometry">
            <mxRectangle width="90" height="30" as="alternateBounds" />
          </mxGeometry>
        </mxCell>
        <mxCell id="HmzSfwOKwj8Bq_koUTHl-64" value="ExOrders" style="shape=table;startSize=30;container=1;collapsible=1;childLayout=tableLayout;fixedRows=1;rowLines=0;fontStyle=1;align=center;resizeLast=1;labelBackgroundColor=none;fillColor=#dae8fc;strokeColor=#6C8EBF;" parent="1" vertex="1">
          <mxGeometry x="-1350" y="375" width="160" height="300" as="geometry" />
        </mxCell>
        <mxCell id="HmzSfwOKwj8Bq_koUTHl-71" value="" style="shape=tableRow;horizontal=0;startSize=0;swimlaneHead=0;swimlaneBody=0;fillColor=none;collapsible=0;dropTarget=0;points=[[0,0.5],[1,0.5]];portConstraint=eastwest;strokeColor=#6C8EBF;top=0;left=0;right=0;bottom=1;labelBackgroundColor=none;fontColor=#393C56;" parent="HmzSfwOKwj8Bq_koUTHl-64" vertex="1">
          <mxGeometry y="30" width="160" height="30" as="geometry" />
        </mxCell>
        <mxCell id="HmzSfwOKwj8Bq_koUTHl-72" value="PK" style="shape=partialRectangle;overflow=hidden;connectable=0;fillColor=none;strokeColor=#6C8EBF;top=0;left=0;bottom=0;right=0;fontStyle=1;labelBackgroundColor=none;fontColor=#393C56;" parent="HmzSfwOKwj8Bq_koUTHl-71" vertex="1">
          <mxGeometry width="30" height="30" as="geometry">
            <mxRectangle width="30" height="30" as="alternateBounds" />
          </mxGeometry>
        </mxCell>
        <mxCell id="HmzSfwOKwj8Bq_koUTHl-73" value="OrderNo " style="shape=partialRectangle;overflow=hidden;connectable=0;fillColor=none;align=left;strokeColor=#6C8EBF;top=0;left=0;bottom=0;right=0;spacingLeft=6;fontStyle=5;labelBackgroundColor=none;fontColor=#393C56;" parent="HmzSfwOKwj8Bq_koUTHl-71" vertex="1">
          <mxGeometry x="30" width="130" height="30" as="geometry">
            <mxRectangle width="130" height="30" as="alternateBounds" />
          </mxGeometry>
        </mxCell>
        <mxCell id="HmzSfwOKwj8Bq_koUTHl-74" value="" style="shape=tableRow;horizontal=0;startSize=0;swimlaneHead=0;swimlaneBody=0;fillColor=none;collapsible=0;dropTarget=0;points=[[0,0.5],[1,0.5]];portConstraint=eastwest;strokeColor=#6C8EBF;top=0;left=0;right=0;bottom=0;labelBackgroundColor=none;fontColor=#393C56;" parent="HmzSfwOKwj8Bq_koUTHl-64" vertex="1">
          <mxGeometry y="60" width="160" height="30" as="geometry" />
        </mxCell>
        <mxCell id="HmzSfwOKwj8Bq_koUTHl-75" value="" style="shape=partialRectangle;overflow=hidden;connectable=0;fillColor=none;strokeColor=#6C8EBF;top=0;left=0;bottom=0;right=0;labelBackgroundColor=none;fontColor=#393C56;" parent="HmzSfwOKwj8Bq_koUTHl-74" vertex="1">
          <mxGeometry width="30" height="30" as="geometry">
            <mxRectangle width="30" height="30" as="alternateBounds" />
          </mxGeometry>
        </mxCell>
        <mxCell id="HmzSfwOKwj8Bq_koUTHl-76" value="Date" style="shape=partialRectangle;overflow=hidden;connectable=0;fillColor=none;align=left;strokeColor=#6C8EBF;top=0;left=0;bottom=0;right=0;spacingLeft=6;labelBackgroundColor=none;fontColor=#393C56;" parent="HmzSfwOKwj8Bq_koUTHl-74" vertex="1">
          <mxGeometry x="30" width="130" height="30" as="geometry">
            <mxRectangle width="130" height="30" as="alternateBounds" />
          </mxGeometry>
        </mxCell>
        <mxCell id="HmzSfwOKwj8Bq_koUTHl-68" value="" style="shape=tableRow;horizontal=0;startSize=0;swimlaneHead=0;swimlaneBody=0;fillColor=none;collapsible=0;dropTarget=0;points=[[0,0.5],[1,0.5]];portConstraint=eastwest;strokeColor=#6C8EBF;top=0;left=0;right=0;bottom=1;labelBackgroundColor=none;fontColor=#393C56;" parent="HmzSfwOKwj8Bq_koUTHl-64" vertex="1">
          <mxGeometry y="90" width="160" height="30" as="geometry" />
        </mxCell>
        <mxCell id="HmzSfwOKwj8Bq_koUTHl-69" value="FK" style="shape=partialRectangle;overflow=hidden;connectable=0;fillColor=none;strokeColor=#6C8EBF;top=0;left=0;bottom=0;right=0;fontStyle=1;labelBackgroundColor=none;fontColor=#393C56;" parent="HmzSfwOKwj8Bq_koUTHl-68" vertex="1">
          <mxGeometry width="30" height="30" as="geometry">
            <mxRectangle width="30" height="30" as="alternateBounds" />
          </mxGeometry>
        </mxCell>
        <mxCell id="HmzSfwOKwj8Bq_koUTHl-70" value="CustID " style="shape=partialRectangle;overflow=hidden;connectable=0;fillColor=none;align=left;strokeColor=#6C8EBF;top=0;left=0;bottom=0;right=0;spacingLeft=6;fontStyle=1;labelBackgroundColor=none;fontColor=#393C56;" parent="HmzSfwOKwj8Bq_koUTHl-68" vertex="1">
          <mxGeometry x="30" width="130" height="30" as="geometry">
            <mxRectangle width="130" height="30" as="alternateBounds" />
          </mxGeometry>
        </mxCell>
        <mxCell id="HmzSfwOKwj8Bq_koUTHl-65" value="" style="shape=tableRow;horizontal=0;startSize=0;swimlaneHead=0;swimlaneBody=0;fillColor=none;collapsible=0;dropTarget=0;points=[[0,0.5],[1,0.5]];portConstraint=eastwest;strokeColor=#6C8EBF;top=0;left=0;right=0;bottom=1;labelBackgroundColor=none;fontColor=#393C56;swimlaneFillColor=none;" parent="HmzSfwOKwj8Bq_koUTHl-64" vertex="1">
          <mxGeometry y="120" width="160" height="30" as="geometry" />
        </mxCell>
        <mxCell id="HmzSfwOKwj8Bq_koUTHl-66" value="FK" style="shape=partialRectangle;overflow=hidden;connectable=0;fillColor=none;strokeColor=#6C8EBF;top=0;left=0;bottom=0;right=0;fontStyle=1;labelBackgroundColor=none;fontColor=#393C56;" parent="HmzSfwOKwj8Bq_koUTHl-65" vertex="1">
          <mxGeometry width="30" height="30" as="geometry">
            <mxRectangle width="30" height="30" as="alternateBounds" />
          </mxGeometry>
        </mxCell>
        <mxCell id="HmzSfwOKwj8Bq_koUTHl-67" value="Code  " style="shape=partialRectangle;overflow=hidden;connectable=0;fillColor=none;align=left;strokeColor=#6C8EBF;top=0;left=0;bottom=0;right=0;spacingLeft=6;fontStyle=1;labelBackgroundColor=none;fontColor=#393C56;" parent="HmzSfwOKwj8Bq_koUTHl-65" vertex="1">
          <mxGeometry x="30" width="130" height="30" as="geometry">
            <mxRectangle width="130" height="30" as="alternateBounds" />
          </mxGeometry>
        </mxCell>
        <mxCell id="HmzSfwOKwj8Bq_koUTHl-77" value="" style="shape=tableRow;horizontal=0;startSize=0;swimlaneHead=0;swimlaneBody=0;fillColor=none;collapsible=0;dropTarget=0;points=[[0,0.5],[1,0.5]];portConstraint=eastwest;strokeColor=#6C8EBF;top=0;left=0;right=0;bottom=0;labelBackgroundColor=none;fontColor=#393C56;" parent="HmzSfwOKwj8Bq_koUTHl-64" vertex="1">
          <mxGeometry y="150" width="160" height="30" as="geometry" />
        </mxCell>
        <mxCell id="HmzSfwOKwj8Bq_koUTHl-78" value="" style="shape=partialRectangle;overflow=hidden;connectable=0;fillColor=none;strokeColor=#6C8EBF;top=0;left=0;bottom=0;right=0;labelBackgroundColor=none;fontColor=#393C56;" parent="HmzSfwOKwj8Bq_koUTHl-77" vertex="1">
          <mxGeometry width="30" height="30" as="geometry">
            <mxRectangle width="30" height="30" as="alternateBounds" />
          </mxGeometry>
        </mxCell>
        <mxCell id="HmzSfwOKwj8Bq_koUTHl-79" value="Quant " style="shape=partialRectangle;overflow=hidden;connectable=0;fillColor=none;align=left;strokeColor=#6C8EBF;top=0;left=0;bottom=0;right=0;spacingLeft=6;labelBackgroundColor=none;fontColor=#393C56;" parent="HmzSfwOKwj8Bq_koUTHl-77" vertex="1">
          <mxGeometry x="30" width="130" height="30" as="geometry">
            <mxRectangle width="130" height="30" as="alternateBounds" />
          </mxGeometry>
        </mxCell>
        <mxCell id="HmzSfwOKwj8Bq_koUTHl-80" value="" style="shape=tableRow;horizontal=0;startSize=0;swimlaneHead=0;swimlaneBody=0;fillColor=none;collapsible=0;dropTarget=0;points=[[0,0.5],[1,0.5]];portConstraint=eastwest;strokeColor=#6C8EBF;top=0;left=0;right=0;bottom=0;labelBackgroundColor=none;fontColor=#393C56;" parent="HmzSfwOKwj8Bq_koUTHl-64" vertex="1">
          <mxGeometry y="180" width="160" height="30" as="geometry" />
        </mxCell>
        <mxCell id="HmzSfwOKwj8Bq_koUTHl-81" value="" style="shape=partialRectangle;overflow=hidden;connectable=0;fillColor=none;strokeColor=#6C8EBF;top=0;left=0;bottom=0;right=0;labelBackgroundColor=none;fontColor=#393C56;" parent="HmzSfwOKwj8Bq_koUTHl-80" vertex="1">
          <mxGeometry width="30" height="30" as="geometry">
            <mxRectangle width="30" height="30" as="alternateBounds" />
          </mxGeometry>
        </mxCell>
        <mxCell id="HmzSfwOKwj8Bq_koUTHl-82" value="Delivery " style="shape=partialRectangle;overflow=hidden;connectable=0;fillColor=none;align=left;strokeColor=#6C8EBF;top=0;left=0;bottom=0;right=0;spacingLeft=6;labelBackgroundColor=none;fontColor=#393C56;" parent="HmzSfwOKwj8Bq_koUTHl-80" vertex="1">
          <mxGeometry x="30" width="130" height="30" as="geometry">
            <mxRectangle width="130" height="30" as="alternateBounds" />
          </mxGeometry>
        </mxCell>
        <mxCell id="HmzSfwOKwj8Bq_koUTHl-83" value="" style="shape=tableRow;horizontal=0;startSize=0;swimlaneHead=0;swimlaneBody=0;fillColor=none;collapsible=0;dropTarget=0;points=[[0,0.5],[1,0.5]];portConstraint=eastwest;strokeColor=#6C8EBF;top=0;left=0;right=0;bottom=0;labelBackgroundColor=none;fontColor=#393C56;" parent="HmzSfwOKwj8Bq_koUTHl-64" vertex="1">
          <mxGeometry y="210" width="160" height="30" as="geometry" />
        </mxCell>
        <mxCell id="HmzSfwOKwj8Bq_koUTHl-84" value="" style="shape=partialRectangle;overflow=hidden;connectable=0;fillColor=none;strokeColor=#6C8EBF;top=0;left=0;bottom=0;right=0;labelBackgroundColor=none;fontColor=#393C56;" parent="HmzSfwOKwj8Bq_koUTHl-83" vertex="1">
          <mxGeometry width="30" height="30" as="geometry">
            <mxRectangle width="30" height="30" as="alternateBounds" />
          </mxGeometry>
        </mxCell>
        <mxCell id="HmzSfwOKwj8Bq_koUTHl-85" value="Address" style="shape=partialRectangle;overflow=hidden;connectable=0;fillColor=none;align=left;strokeColor=#6C8EBF;top=0;left=0;bottom=0;right=0;spacingLeft=6;labelBackgroundColor=none;fontColor=#393C56;" parent="HmzSfwOKwj8Bq_koUTHl-83" vertex="1">
          <mxGeometry x="30" width="130" height="30" as="geometry">
            <mxRectangle width="130" height="30" as="alternateBounds" />
          </mxGeometry>
        </mxCell>
        <mxCell id="HmzSfwOKwj8Bq_koUTHl-86" value="" style="shape=tableRow;horizontal=0;startSize=0;swimlaneHead=0;swimlaneBody=0;fillColor=none;collapsible=0;dropTarget=0;points=[[0,0.5],[1,0.5]];portConstraint=eastwest;strokeColor=#6C8EBF;top=0;left=0;right=0;bottom=0;labelBackgroundColor=none;fontColor=#393C56;" parent="HmzSfwOKwj8Bq_koUTHl-64" vertex="1">
          <mxGeometry y="240" width="160" height="30" as="geometry" />
        </mxCell>
        <mxCell id="HmzSfwOKwj8Bq_koUTHl-87" value="" style="shape=partialRectangle;overflow=hidden;connectable=0;fillColor=none;strokeColor=#6C8EBF;top=0;left=0;bottom=0;right=0;labelBackgroundColor=none;fontColor=#393C56;" parent="HmzSfwOKwj8Bq_koUTHl-86" vertex="1">
          <mxGeometry width="30" height="30" as="geometry">
            <mxRectangle width="30" height="30" as="alternateBounds" />
          </mxGeometry>
        </mxCell>
        <mxCell id="HmzSfwOKwj8Bq_koUTHl-88" value="Status" style="shape=partialRectangle;overflow=hidden;connectable=0;fillColor=none;align=left;strokeColor=#6C8EBF;top=0;left=0;bottom=0;right=0;spacingLeft=6;labelBackgroundColor=none;fontColor=#393C56;" parent="HmzSfwOKwj8Bq_koUTHl-86" vertex="1">
          <mxGeometry x="30" width="130" height="30" as="geometry">
            <mxRectangle width="130" height="30" as="alternateBounds" />
          </mxGeometry>
        </mxCell>
        <mxCell id="HmzSfwOKwj8Bq_koUTHl-89" value="" style="shape=tableRow;horizontal=0;startSize=0;swimlaneHead=0;swimlaneBody=0;fillColor=none;collapsible=0;dropTarget=0;points=[[0,0.5],[1,0.5]];portConstraint=eastwest;strokeColor=#6C8EBF;top=0;left=0;right=0;bottom=0;labelBackgroundColor=none;fontColor=#393C56;" parent="HmzSfwOKwj8Bq_koUTHl-64" vertex="1">
          <mxGeometry y="270" width="160" height="30" as="geometry" />
        </mxCell>
        <mxCell id="HmzSfwOKwj8Bq_koUTHl-90" value="" style="shape=partialRectangle;overflow=hidden;connectable=0;fillColor=none;strokeColor=#6C8EBF;top=0;left=0;bottom=0;right=0;labelBackgroundColor=none;fontColor=#393C56;" parent="HmzSfwOKwj8Bq_koUTHl-89" vertex="1">
          <mxGeometry width="30" height="30" as="geometry">
            <mxRectangle width="30" height="30" as="alternateBounds" />
          </mxGeometry>
        </mxCell>
        <mxCell id="HmzSfwOKwj8Bq_koUTHl-91" value="SuppDate " style="shape=partialRectangle;overflow=hidden;connectable=0;fillColor=none;align=left;strokeColor=#6C8EBF;top=0;left=0;bottom=0;right=0;spacingLeft=6;labelBackgroundColor=none;fontColor=#393C56;" parent="HmzSfwOKwj8Bq_koUTHl-89" vertex="1">
          <mxGeometry x="30" width="130" height="30" as="geometry">
            <mxRectangle width="130" height="30" as="alternateBounds" />
          </mxGeometry>
        </mxCell>
        <mxCell id="HmzSfwOKwj8Bq_koUTHl-317" style="edgeStyle=orthogonalEdgeStyle;rounded=0;orthogonalLoop=1;jettySize=auto;html=1;exitX=0;exitY=0.5;exitDx=0;exitDy=0;entryX=1;entryY=0.5;entryDx=0;entryDy=0;strokeColor=#009900;fontColor=#393C56;fillColor=#F2CC8F;" parent="1" source="HmzSfwOKwj8Bq_koUTHl-34" target="HmzSfwOKwj8Bq_koUTHl-236" edge="1">
          <mxGeometry relative="1" as="geometry" />
        </mxCell>
        <mxCell id="HmzSfwOKwj8Bq_koUTHl-318" style="edgeStyle=orthogonalEdgeStyle;rounded=0;orthogonalLoop=1;jettySize=auto;html=1;exitX=0;exitY=0.5;exitDx=0;exitDy=0;entryX=0;entryY=0.5;entryDx=0;entryDy=0;strokeColor=#009900;fontColor=#393C56;fillColor=#F2CC8F;" parent="1" source="HmzSfwOKwj8Bq_koUTHl-34" target="HmzSfwOKwj8Bq_koUTHl-149" edge="1">
          <mxGeometry relative="1" as="geometry">
            <Array as="points">
              <mxPoint x="-1600" y="405" />
              <mxPoint x="-1600" y="270" />
              <mxPoint x="-1490" y="270" />
              <mxPoint x="-1490" y="155" />
            </Array>
          </mxGeometry>
        </mxCell>
        <mxCell id="HmzSfwOKwj8Bq_koUTHl-319" style="edgeStyle=orthogonalEdgeStyle;rounded=0;orthogonalLoop=1;jettySize=auto;html=1;exitX=1;exitY=0.5;exitDx=0;exitDy=0;entryX=0;entryY=0.5;entryDx=0;entryDy=0;strokeColor=#009900;fontColor=#393C56;fillColor=#F2CC8F;" parent="1" source="HmzSfwOKwj8Bq_koUTHl-34" target="HmzSfwOKwj8Bq_koUTHl-65" edge="1">
          <mxGeometry relative="1" as="geometry">
            <Array as="points">
              <mxPoint x="-1380" y="405" />
              <mxPoint x="-1380" y="510" />
            </Array>
          </mxGeometry>
        </mxCell>
        <mxCell id="HmzSfwOKwj8Bq_koUTHl-320" style="edgeStyle=orthogonalEdgeStyle;rounded=0;orthogonalLoop=1;jettySize=auto;html=1;exitX=1;exitY=0.5;exitDx=0;exitDy=0;entryX=1;entryY=0.5;entryDx=0;entryDy=0;strokeColor=#FF9999;fontColor=#393C56;fillColor=#F2CC8F;" parent="1" source="HmzSfwOKwj8Bq_koUTHl-121" target="HmzSfwOKwj8Bq_koUTHl-68" edge="1">
          <mxGeometry relative="1" as="geometry">
            <Array as="points">
              <mxPoint x="-1140" y="55" />
              <mxPoint x="-1140" y="480" />
            </Array>
          </mxGeometry>
        </mxCell>
        <mxCell id="HmzSfwOKwj8Bq_koUTHl-321" style="edgeStyle=orthogonalEdgeStyle;rounded=0;orthogonalLoop=1;jettySize=auto;html=1;exitX=1;exitY=0.5;exitDx=0;exitDy=0;entryX=1;entryY=0.5;entryDx=0;entryDy=0;strokeColor=#9673A6;fontColor=#393C56;fillColor=#F2CC8F;" parent="1" source="HmzSfwOKwj8Bq_koUTHl-99" target="HmzSfwOKwj8Bq_koUTHl-189" edge="1">
          <mxGeometry relative="1" as="geometry" />
        </mxCell>
        <mxCell id="HmzSfwOKwj8Bq_koUTHl-322" style="edgeStyle=orthogonalEdgeStyle;rounded=0;orthogonalLoop=1;jettySize=auto;html=1;exitX=1;exitY=0.5;exitDx=0;exitDy=0;entryX=1;entryY=0.5;entryDx=0;entryDy=0;strokeColor=#9673A6;fontColor=#393C56;fillColor=#F2CC8F;" parent="1" source="HmzSfwOKwj8Bq_koUTHl-99" target="HmzSfwOKwj8Bq_koUTHl-211" edge="1">
          <mxGeometry relative="1" as="geometry" />
        </mxCell>
        <mxCell id="HmzSfwOKwj8Bq_koUTHl-323" style="edgeStyle=orthogonalEdgeStyle;rounded=0;orthogonalLoop=1;jettySize=auto;html=1;exitX=1;exitY=0.5;exitDx=0;exitDy=0;entryX=0;entryY=0.5;entryDx=0;entryDy=0;strokeColor=#6C8EBF;fontColor=#393C56;fillColor=#F2CC8F;" parent="1" source="HmzSfwOKwj8Bq_koUTHl-71" target="HmzSfwOKwj8Bq_koUTHl-208" edge="1">
          <mxGeometry relative="1" as="geometry">
            <Array as="points">
              <mxPoint x="-1120" y="420" />
              <mxPoint x="-1120" y="520" />
              <mxPoint x="-1150" y="520" />
              <mxPoint x="-1150" y="705" />
            </Array>
          </mxGeometry>
        </mxCell>
        <mxCell id="HmzSfwOKwj8Bq_koUTHl-324" style="edgeStyle=orthogonalEdgeStyle;rounded=0;orthogonalLoop=1;jettySize=auto;html=1;exitX=1;exitY=0.5;exitDx=0;exitDy=0;entryX=1;entryY=0.5;entryDx=0;entryDy=0;strokeColor=#6B6700;fontColor=#393C56;fillColor=#F2CC8F;" parent="1" source="HmzSfwOKwj8Bq_koUTHl-192" target="HmzSfwOKwj8Bq_koUTHl-223" edge="1">
          <mxGeometry relative="1" as="geometry">
            <Array as="points">
              <mxPoint x="-910" y="365" />
              <mxPoint x="-910" y="735" />
            </Array>
          </mxGeometry>
        </mxCell>
        <mxCell id="HmzSfwOKwj8Bq_koUTHl-325" style="edgeStyle=orthogonalEdgeStyle;rounded=0;orthogonalLoop=1;jettySize=auto;html=1;exitX=0;exitY=0.5;exitDx=0;exitDy=0;entryX=0;entryY=0.5;entryDx=0;entryDy=0;strokeColor=#E07A5F;fontColor=#393C56;fillColor=#F2CC8F;" parent="1" source="HmzSfwOKwj8Bq_koUTHl-291" target="HmzSfwOKwj8Bq_koUTHl-298" edge="1">
          <mxGeometry relative="1" as="geometry" />
        </mxCell>
        <mxCell id="HmzSfwOKwj8Bq_koUTHl-327" style="edgeStyle=orthogonalEdgeStyle;rounded=0;orthogonalLoop=1;jettySize=auto;html=1;exitX=0;exitY=0.5;exitDx=0;exitDy=0;entryX=0;entryY=0.5;entryDx=0;entryDy=0;strokeColor=#6C8EBF;fontColor=#393C56;fillColor=#F2CC8F;" parent="1" source="HmzSfwOKwj8Bq_koUTHl-71" target="HmzSfwOKwj8Bq_koUTHl-239" edge="1">
          <mxGeometry relative="1" as="geometry">
            <Array as="points">
              <mxPoint x="-1370" y="420" />
              <mxPoint x="-1370" y="340" />
              <mxPoint x="-1650" y="340" />
              <mxPoint x="-1650" y="75" />
            </Array>
          </mxGeometry>
        </mxCell>
        <mxCell id="HmzSfwOKwj8Bq_koUTHl-328" style="edgeStyle=orthogonalEdgeStyle;rounded=0;orthogonalLoop=1;jettySize=auto;html=1;exitX=0;exitY=0.5;exitDx=0;exitDy=0;entryX=1;entryY=0.5;entryDx=0;entryDy=0;strokeColor=#6C8EBF;fontColor=#393C56;fillColor=#F2CC8F;" parent="1" source="HmzSfwOKwj8Bq_koUTHl-71" target="HmzSfwOKwj8Bq_koUTHl-155" edge="1">
          <mxGeometry relative="1" as="geometry">
            <Array as="points">
              <mxPoint x="-1370" y="420" />
              <mxPoint x="-1370" y="340" />
              <mxPoint x="-1310" y="340" />
              <mxPoint x="-1310" y="65" />
            </Array>
          </mxGeometry>
        </mxCell>
        <mxCell id="HmzSfwOKwj8Bq_koUTHl-329" style="edgeStyle=orthogonalEdgeStyle;rounded=0;orthogonalLoop=1;jettySize=auto;html=1;exitX=0;exitY=0.5;exitDx=0;exitDy=0;entryX=1;entryY=0.5;entryDx=0;entryDy=0;strokeColor=#FF9999;fontColor=#393C56;fillColor=#F2CC8F;" parent="1" source="HmzSfwOKwj8Bq_koUTHl-121" target="HmzSfwOKwj8Bq_koUTHl-152" edge="1">
          <mxGeometry relative="1" as="geometry">
            <Array as="points">
              <mxPoint x="-1290" y="55" />
              <mxPoint x="-1290" y="125" />
            </Array>
          </mxGeometry>
        </mxCell>
        <mxCell id="HmzSfwOKwj8Bq_koUTHl-330" style="edgeStyle=orthogonalEdgeStyle;rounded=0;orthogonalLoop=1;jettySize=auto;html=1;exitX=1;exitY=0.5;exitDx=0;exitDy=0;strokeColor=#6C8EBF;fontColor=#393C56;fillColor=#F2CC8F;" parent="1" source="HmzSfwOKwj8Bq_koUTHl-71" target="HmzSfwOKwj8Bq_koUTHl-96" edge="1">
          <mxGeometry relative="1" as="geometry">
            <Array as="points">
              <mxPoint x="-1120" y="420" />
              <mxPoint x="-1120" y="155" />
            </Array>
          </mxGeometry>
        </mxCell>
        <mxCell id="HmzSfwOKwj8Bq_koUTHl-331" style="edgeStyle=orthogonalEdgeStyle;rounded=0;orthogonalLoop=1;jettySize=auto;html=1;exitX=1;exitY=0.5;exitDx=0;exitDy=0;entryX=0;entryY=0.5;entryDx=0;entryDy=0;strokeColor=#6C8EBF;fontColor=#393C56;fillColor=#F2CC8F;" parent="1" source="HmzSfwOKwj8Bq_koUTHl-71" target="HmzSfwOKwj8Bq_koUTHl-186" edge="1">
          <mxGeometry relative="1" as="geometry">
            <Array as="points">
              <mxPoint x="-1120" y="420" />
              <mxPoint x="-1120" y="455" />
            </Array>
          </mxGeometry>
        </mxCell>
        <mxCell id="fSmkJeFhwED-33f8GZ2k-1" value="OrderDetails" style="shape=table;startSize=30;container=1;collapsible=1;childLayout=tableLayout;fixedRows=1;rowLines=0;fontStyle=1;align=center;resizeLast=1;labelBackgroundColor=none;fillColor=#F2CC8F;strokeColor=#E07A5F;fontColor=#393C56;" parent="1" vertex="1">
          <mxGeometry x="-1430" y="760" width="100" height="90" as="geometry" />
        </mxCell>
        <mxCell id="fSmkJeFhwED-33f8GZ2k-2" value="" style="shape=tableRow;horizontal=0;startSize=0;swimlaneHead=0;swimlaneBody=0;fillColor=none;collapsible=0;dropTarget=0;points=[[0,0.5],[1,0.5]];portConstraint=eastwest;strokeColor=#E07A5F;top=0;left=0;right=0;bottom=1;labelBackgroundColor=none;fontColor=#393C56;" parent="fSmkJeFhwED-33f8GZ2k-1" vertex="1">
          <mxGeometry y="30" width="100" height="30" as="geometry" />
        </mxCell>
        <mxCell id="fSmkJeFhwED-33f8GZ2k-3" value="FK" style="shape=partialRectangle;overflow=hidden;connectable=0;fillColor=none;strokeColor=#E07A5F;top=0;left=0;bottom=0;right=0;fontStyle=1;labelBackgroundColor=none;fontColor=#393C56;" parent="fSmkJeFhwED-33f8GZ2k-2" vertex="1">
          <mxGeometry width="30" height="30" as="geometry">
            <mxRectangle width="30" height="30" as="alternateBounds" />
          </mxGeometry>
        </mxCell>
        <mxCell id="fSmkJeFhwED-33f8GZ2k-4" value="OrderNo" style="shape=partialRectangle;overflow=hidden;connectable=0;fillColor=none;align=left;strokeColor=#E07A5F;top=0;left=0;bottom=0;right=0;spacingLeft=6;fontStyle=1;labelBackgroundColor=none;fontColor=#393C56;" parent="fSmkJeFhwED-33f8GZ2k-2" vertex="1">
          <mxGeometry x="30" width="70" height="30" as="geometry">
            <mxRectangle width="70" height="30" as="alternateBounds" />
          </mxGeometry>
        </mxCell>
        <mxCell id="fSmkJeFhwED-33f8GZ2k-5" value="" style="shape=tableRow;horizontal=0;startSize=0;swimlaneHead=0;swimlaneBody=0;fillColor=none;collapsible=0;dropTarget=0;points=[[0,0.5],[1,0.5]];portConstraint=eastwest;strokeColor=#E07A5F;top=0;left=0;right=0;bottom=0;labelBackgroundColor=none;fontColor=#393C56;" parent="fSmkJeFhwED-33f8GZ2k-1" vertex="1">
          <mxGeometry y="60" width="100" height="30" as="geometry" />
        </mxCell>
        <mxCell id="fSmkJeFhwED-33f8GZ2k-6" value="FK" style="shape=partialRectangle;overflow=hidden;connectable=0;fillColor=none;strokeColor=#E07A5F;top=0;left=0;bottom=0;right=0;labelBackgroundColor=none;fontColor=#393C56;fontStyle=1" parent="fSmkJeFhwED-33f8GZ2k-5" vertex="1">
          <mxGeometry width="30" height="30" as="geometry">
            <mxRectangle width="30" height="30" as="alternateBounds" />
          </mxGeometry>
        </mxCell>
        <mxCell id="fSmkJeFhwED-33f8GZ2k-7" value="Code" style="shape=partialRectangle;overflow=hidden;connectable=0;fillColor=none;align=left;strokeColor=#E07A5F;top=0;left=0;bottom=0;right=0;spacingLeft=6;labelBackgroundColor=none;fontColor=#393C56;" parent="fSmkJeFhwED-33f8GZ2k-5" vertex="1">
          <mxGeometry x="30" width="70" height="30" as="geometry">
            <mxRectangle width="70" height="30" as="alternateBounds" />
          </mxGeometry>
        </mxCell>
        <mxCell id="fSmkJeFhwED-33f8GZ2k-8" style="edgeStyle=orthogonalEdgeStyle;rounded=0;orthogonalLoop=1;jettySize=auto;html=1;exitX=0;exitY=0.5;exitDx=0;exitDy=0;strokeColor=#6C8EBF;entryX=1;entryY=0.5;entryDx=0;entryDy=0;" parent="1" source="HmzSfwOKwj8Bq_koUTHl-71" target="fSmkJeFhwED-33f8GZ2k-2" edge="1">
          <mxGeometry relative="1" as="geometry">
            <mxPoint x="-1320" y="900" as="targetPoint" />
            <Array as="points">
              <mxPoint x="-1370" y="420" />
              <mxPoint x="-1370" y="710" />
              <mxPoint x="-1310" y="710" />
              <mxPoint x="-1310" y="805" />
            </Array>
          </mxGeometry>
        </mxCell>
        <mxCell id="fSmkJeFhwED-33f8GZ2k-9" style="edgeStyle=orthogonalEdgeStyle;rounded=0;orthogonalLoop=1;jettySize=auto;html=1;exitX=1;exitY=0.5;exitDx=0;exitDy=0;entryX=0;entryY=0.5;entryDx=0;entryDy=0;strokeColor=#009900;" parent="1" source="HmzSfwOKwj8Bq_koUTHl-34" target="fSmkJeFhwED-33f8GZ2k-5" edge="1">
          <mxGeometry relative="1" as="geometry">
            <Array as="points">
              <mxPoint x="-1380" y="405" />
              <mxPoint x="-1380" y="730" />
              <mxPoint x="-1450" y="730" />
              <mxPoint x="-1450" y="835" />
            </Array>
          </mxGeometry>
        </mxCell>
      </root>
    </mxGraphModel>
  </diagram>
</mxfile>
